<?xml version="1.0" encoding="utf-8" standalone="no"?>
<!DOCTYPE svg PUBLIC "-//W3C//DTD SVG 1.1//EN" "http://www.w3.org/Graphics/SVG/1.1/DTD/svg11.dtd">
<svg width="6000px" height="6000px" version="1.1" xmlns="http://www.w3.org/2000/svg" xmlns:xlink="http://www.w3.org/1999/xlink">
<g id="bg">
<rect x="0" y="0" width="6000px" height="6000px" style="fill:rgb(255,255,255);"/>
</g>
<g id="ideograms">
<path d="M3000.000,525.000 A2475.000,2475.000 40.000 0,1 3680.161,620.293 L3700.772,548.180 A2550.000,2550.000 0.000 0,0 3000.000,450.000 Z" style="stroke-width:2.0;stroke:rgb(0,0,0);stroke-linecap:round;fill:rgb(0,0,0);" />
<text x="3428.3" y="227.9" font-size="104.0px" font-family="CMUBright-Roman" style="text-anchor:start;fill:rgb(0,0,0);" transform="rotate(278.0,3428.3,227.9)" >OsChr1</text>
<path d="M3000.000,525.000 A2475.000,2475.000 40.000 0,1 3680.161,620.293 L3700.772,548.180 A2550.000,2550.000 0.000 0,0 3000.000,450.000 Z" style="stroke-width:2.0;stroke:rgb(0,0,0);stroke-linecap:round;fill:none;" />
<path d="M3743.536,639.327 A2475.000,2475.000 40.000 0,1 4264.715,872.532 L4303.040,808.063 A2550.000,2550.000 0.000 0,0 3766.067,567.791 Z" style="stroke-width:2.0;stroke:rgb(0,0,0);stroke-linecap:round;fill:rgb(0,0,0);" />
<text x="4181.6" y="456.0" font-size="104.0px" font-family="CMUBright-Roman" style="text-anchor:start;fill:rgb(0,0,0);" transform="rotate(294.1,4181.6,456.0)" >OsChr2</text>
<path d="M3743.536,639.327 A2475.000,2475.000 40.000 0,1 4264.715,872.532 L4303.040,808.063 A2550.000,2550.000 0.000 0,0 3766.067,567.791 Z" style="stroke-width:2.0;stroke:rgb(0,0,0);stroke-linecap:round;fill:none;" />
<path d="M4321.138,907.103 A2475.000,2475.000 40.000 0,1 4770.894,1270.965 L4824.557,1218.570 A2550.000,2550.000 0.000 0,0 4361.173,843.682 Z" style="stroke-width:2.0;stroke:rgb(0,0,0);stroke-linecap:round;fill:rgb(0,0,0);" />
<text x="4794.8" y="844.4" font-size="104.0px" font-family="CMUBright-Roman" style="text-anchor:start;fill:rgb(0,0,0);" transform="rotate(309.0,4794.8,844.4)" >OsChr3</text>
<path d="M4321.138,907.103 A2475.000,2475.000 40.000 0,1 4770.894,1270.965 L4824.557,1218.570 A2550.000,2550.000 0.000 0,0 4361.173,843.682 Z" style="stroke-width:2.0;stroke:rgb(0,0,0);stroke-linecap:round;fill:none;" />
<path d="M4816.484,1318.926 A2475.000,2475.000 40.000 0,1 5149.957,1773.905 L5215.107,1736.750 A2550.000,2550.000 0.000 0,0 4871.529,1267.984 Z" style="stroke-width:2.0;stroke:rgb(0,0,0);stroke-linecap:round;fill:rgb(0,0,0);" />
<text x="5285.5" y="1373.8" font-size="104.0px" font-family="CMUBright-Roman" style="text-anchor:start;fill:rgb(0,0,0);" transform="rotate(323.8,5285.5,1373.8)" >OsChr4</text>
<path d="M4816.484,1318.926 A2475.000,2475.000 40.000 0,1 5149.957,1773.905 L5215.107,1736.750 A2550.000,2550.000 0.000 0,0 4871.529,1267.984 Z" style="stroke-width:2.0;stroke:rgb(0,0,0);stroke-linecap:round;fill:none;" />
<path d="M5181.967,1831.819 A2475.000,2475.000 40.000 0,1 5365.331,2271.416 L5437.008,2249.338 A2550.000,2550.000 0.000 0,0 5248.087,1796.420 Z" style="stroke-width:2.0;stroke:rgb(0,0,0);stroke-linecap:round;fill:rgb(0,0,0);" />
<text x="5603.8" y="1956.7" font-size="104.0px" font-family="CMUBright-Roman" style="text-anchor:start;fill:rgb(0,0,0);" transform="rotate(337.4,5603.8,1956.7)" >OsChr5</text>
<path d="M5181.967,1831.819 A2475.000,2475.000 40.000 0,1 5365.331,2271.416 L5437.008,2249.338 A2550.000,2550.000 0.000 0,0 5248.087,1796.420 Z" style="stroke-width:2.0;stroke:rgb(0,0,0);stroke-linecap:round;fill:none;" />
<path d="M5383.963,2334.911 A2475.000,2475.000 40.000 0,1 5468.761,2824.373 L5543.572,2819.051 A2550.000,2550.000 0.000 0,0 5456.205,2314.756 Z" style="stroke-width:2.0;stroke:rgb(0,0,0);stroke-linecap:round;fill:rgb(0,0,0);" />
<text x="5770.3" y="2560.1" font-size="104.0px" font-family="CMUBright-Roman" style="text-anchor:start;fill:rgb(0,0,0);" transform="rotate(350.2,5770.3,2560.1)" >OsChr6</text>
<path d="M5383.963,2334.911 A2475.000,2475.000 40.000 0,1 5468.761,2824.373 L5543.572,2819.051 A2550.000,2550.000 0.000 0,0 5456.205,2314.756 Z" style="stroke-width:2.0;stroke:rgb(0,0,0);stroke-linecap:round;fill:none;" />
<path d="M5472.574,2890.436 A2475.000,2475.000 40.000 0,1 5448.385,3361.988 L5522.579,3372.957 A2550.000,2550.000 0.000 0,0 5547.500,2887.115 Z" style="stroke-width:2.0;stroke:rgb(0,0,0);stroke-linecap:round;fill:rgb(0,0,0);" />
<text x="5799.0" y="3183.1" font-size="104.0px" font-family="CMUBright-Roman" style="text-anchor:start;fill:rgb(0,0,0);" transform="rotate(2.9,5799.0,3183.1)" >OsChr7</text>
<path d="M5472.574,2890.436 A2475.000,2475.000 40.000 0,1 5448.385,3361.988 L5522.579,3372.957 A2550.000,2550.000 0.000 0,0 5547.500,2887.115 Z" style="stroke-width:2.0;stroke:rgb(0,0,0);stroke-linecap:round;fill:none;" />
<path d="M5437.833,3427.313 A2475.000,2475.000 40.000 0,1 5319.368,3863.805 L5389.651,3889.981 A2550.000,2550.000 0.000 0,0 5511.706,3440.262 Z" style="stroke-width:2.0;stroke:rgb(0,0,0);stroke-linecap:round;fill:rgb(0,0,0);" />
<text x="5696.5" y="3772.8" font-size="104.0px" font-family="CMUBright-Roman" style="text-anchor:start;fill:rgb(0,0,0);" transform="rotate(15.2,5696.5,3772.8)" >OsChr8</text>
<path d="M5437.833,3427.313 A2475.000,2475.000 40.000 0,1 5319.368,3863.805 L5389.651,3889.981 A2550.000,2550.000 0.000 0,0 5511.706,3440.262 Z" style="stroke-width:2.0;stroke:rgb(0,0,0);stroke-linecap:round;fill:none;" />
<path d="M5295.446,3925.502 A2475.000,2475.000 40.000 0,1 5133.804,4253.995 L5198.465,4291.995 A2550.000,2550.000 0.000 0,0 5365.005,3953.547 Z" style="stroke-width:2.0;stroke:rgb(0,0,0);stroke-linecap:round;fill:rgb(0,0,0);" />
<text x="5499.1" y="4273.8" font-size="104.0px" font-family="CMUBright-Roman" style="text-anchor:start;fill:rgb(0,0,0);" transform="rotate(26.2,5499.1,4273.8)" >OsChr9</text>
<path d="M5295.446,3925.502 A2475.000,2475.000 40.000 0,1 5133.804,4253.995 L5198.465,4291.995 A2550.000,2550.000 0.000 0,0 5365.005,3953.547 Z" style="stroke-width:2.0;stroke:rgb(0,0,0);stroke-linecap:round;fill:none;" />
<path d="M5099.518,4310.592 A2475.000,2475.000 40.000 0,1 4881.200,4608.326 L4938.206,4657.063 A2550.000,2550.000 0.000 0,0 5163.139,4350.307 Z" style="stroke-width:2.0;stroke:rgb(0,0,0);stroke-linecap:round;fill:rgb(0,0,0);" />
<text x="5238.5" y="4690.4" font-size="104.0px" font-family="CMUBright-Roman" style="text-anchor:start;fill:rgb(0,0,0);" transform="rotate(36.3,5238.5,4690.4)" >OsChr10</text>
<path d="M5099.518,4310.592 A2475.000,2475.000 40.000 0,1 4881.200,4608.326 L4938.206,4657.063 A2550.000,2550.000 0.000 0,0 5163.139,4350.307 Z" style="stroke-width:2.0;stroke:rgb(0,0,0);stroke-linecap:round;fill:none;" />
<path d="M4837.531,4658.042 A2475.000,2475.000 40.000 0,1 4497.808,4970.329 L4543.196,5030.036 A2550.000,2550.000 0.000 0,0 4893.214,4708.286 Z" style="stroke-width:2.0;stroke:rgb(0,0,0);stroke-linecap:round;fill:rgb(0,0,0);" />
<text x="4869.0" y="5091.6" font-size="104.0px" font-family="CMUBright-Roman" style="text-anchor:start;fill:rgb(0,0,0);" transform="rotate(47.4,4869.0,5091.6)" >OsChr11</text>
<path d="M4837.531,4658.042 A2475.000,2475.000 40.000 0,1 4497.808,4970.329 L4543.196,5030.036 A2550.000,2550.000 0.000 0,0 4893.214,4708.286 Z" style="stroke-width:2.0;stroke:rgb(0,0,0);stroke-linecap:round;fill:none;" />
<path d="M4444.599,5009.667 A2475.000,2475.000 40.000 0,1 4067.875,5232.771 L4100.235,5300.431 A2550.000,2550.000 0.000 0,0 4488.374,5070.566 Z" style="stroke-width:2.0;stroke:rgb(0,0,0);stroke-linecap:round;fill:rgb(0,0,0);" />
<text x="4395.2" y="5433.4" font-size="104.0px" font-family="CMUBright-Roman" style="text-anchor:start;fill:rgb(0,0,0);" transform="rotate(59.4,4395.2,5433.4)" >OsChr12</text>
<path d="M4444.599,5009.667 A2475.000,2475.000 40.000 0,1 4067.875,5232.771 L4100.235,5300.431 A2550.000,2550.000 0.000 0,0 4488.374,5070.566 Z" style="stroke-width:2.0;stroke:rgb(0,0,0);stroke-linecap:round;fill:none;" />
<path d="M4007.803,5260.522 A2475.000,2475.000 40.000 0,1 3998.580,5264.611 L4028.840,5333.236 A2550.000,2550.000 0.000 0,0 4038.342,5329.022 Z" style="stroke-width:2.0;stroke:rgb(0,0,0);stroke-linecap:round;fill:rgb(0,0,0);" />
<text x="4100.7" y="5580.0" font-size="104.0px" font-family="CMUBright-Roman" style="text-anchor:start;fill:rgb(0,0,0);" transform="rotate(66.1,4100.7,5580.0)" >OsChrUn</text>
<path d="M4007.803,5260.522 A2475.000,2475.000 40.000 0,1 3998.580,5264.611 L4028.840,5333.236 A2550.000,2550.000 0.000 0,0 4038.342,5329.022 Z" style="stroke-width:2.0;stroke:rgb(0,0,0);stroke-linecap:round;fill:none;" />
<path d="M3937.681,5290.498 A2475.000,2475.000 40.000 0,1 3928.948,5294.053 L3957.098,5363.570 A2550.000,2550.000 0.000 0,0 3966.096,5359.907 Z" style="stroke-width:2.0;stroke:rgb(0,0,0);stroke-linecap:round;fill:rgb(0,0,0);" />
<text x="4013.1" y="5615.6" font-size="104.0px" font-family="CMUBright-Roman" style="text-anchor:start;fill:rgb(0,0,0);" transform="rotate(67.8,4013.1,5615.6)" >OsChrSy</text>
<path d="M3937.681,5290.498 A2475.000,2475.000 40.000 0,1 3928.948,5294.053 L3957.098,5363.570 A2550.000,2550.000 0.000 0,0 3966.096,5359.907 Z" style="stroke-width:2.0;stroke:rgb(0,0,0);stroke-linecap:round;fill:none;" />
<path d="M3867.288,5318.068 A2475.000,2475.000 40.000 0,1 3384.043,5445.023 L3395.681,5519.114 A2550.000,2550.000 0.000 0,0 3893.569,5388.312 Z" style="stroke-width:2.0;stroke:rgb(0,0,0);stroke-linecap:round;fill:rgb(141,211,199);" />
<text x="3661.8" y="5725.8" font-size="104.0px" font-family="CMUBright-Roman" style="text-anchor:start;fill:rgb(0,0,0);" transform="rotate(75.3,3661.8,5725.8)" >DrChr<tspan baseline-shift="-40%" font-size="90%">1</tspan></text>
<path d="M3867.288,5318.068 A2475.000,2475.000 40.000 0,1 3384.043,5445.023 L3395.681,5519.114 A2550.000,2550.000 0.000 0,0 3893.569,5388.312 Z" style="stroke-width:2.0;stroke:rgb(0,0,0);stroke-linecap:round;fill:none;" />
<path d="M3318.541,5454.416 A2475.000,2475.000 40.000 0,1 2778.814,5465.097 L2772.111,5539.797 A2550.000,2550.000 0.000 0,0 3328.194,5528.792 Z" style="stroke-width:2.0;stroke:rgb(0,0,0);stroke-linecap:round;fill:rgb(255,255,179);" />
<text x="3003.0" y="5805.0" font-size="104.0px" font-family="CMUBright-Roman" style="text-anchor:start;fill:rgb(0,0,0);" transform="rotate(88.9,3003.0,5805.0)" >DrChr<tspan baseline-shift="-40%" font-size="90%">2</tspan></text>
<path d="M3318.541,5454.416 A2475.000,2475.000 40.000 0,1 2778.814,5465.097 L2772.111,5539.797 A2550.000,2550.000 0.000 0,0 3328.194,5528.792 Z" style="stroke-width:2.0;stroke:rgb(0,0,0);stroke-linecap:round;fill:none;" />
<path d="M2712.991,5458.302 A2475.000,2475.000 40.000 0,1 2406.911,5402.888 L2388.938,5475.703 A2550.000,2550.000 0.000 0,0 2704.294,5532.797 Z" style="stroke-width:2.0;stroke:rgb(0,0,0);stroke-linecap:round;fill:rgb(190,186,218);" />
<text x="2552.0" y="5769.0" font-size="104.0px" font-family="CMUBright-Roman" style="text-anchor:end;fill:rgb(0,0,0);" transform="rotate(-79.7,2552.0,5769.0)" >DrChr<tspan baseline-shift="-40%" font-size="90%">3</tspan></text>
<path d="M2712.991,5458.302 A2475.000,2475.000 40.000 0,1 2406.911,5402.888 L2388.938,5475.703 A2550.000,2550.000 0.000 0,0 2704.294,5532.797 Z" style="stroke-width:2.0;stroke:rgb(0,0,0);stroke-linecap:round;fill:none;" />
<path d="M2342.884,5386.174 A2475.000,2475.000 40.000 0,1 1929.570,5231.548 L1897.133,5299.170 A2550.000,2550.000 0.000 0,0 2322.972,5458.482 Z" style="stroke-width:2.0;stroke:rgb(0,0,0);stroke-linecap:round;fill:rgb(251,128,114);" />
<text x="2066.5" y="5645.1" font-size="104.0px" font-family="CMUBright-Roman" style="text-anchor:end;fill:rgb(0,0,0);" transform="rotate(-69.5,2066.5,5645.1)" >DrChr<tspan baseline-shift="-40%" font-size="90%">4</tspan></text>
<path d="M2342.884,5386.174 A2475.000,2475.000 40.000 0,1 1929.570,5231.548 L1897.133,5299.170 A2550.000,2550.000 0.000 0,0 2322.972,5458.482 Z" style="stroke-width:2.0;stroke:rgb(0,0,0);stroke-linecap:round;fill:none;" />
<path d="M1870.295,5202.133 A2475.000,2475.000 40.000 0,1 1433.211,4915.933 L1385.733,4973.991 A2550.000,2550.000 0.000 0,0 1836.061,5268.865 Z" style="stroke-width:2.0;stroke:rgb(0,0,0);stroke-linecap:round;fill:rgb(128,177,211);" />
<text x="1507.6" y="5375.0" font-size="104.0px" font-family="CMUBright-Roman" style="text-anchor:end;fill:rgb(0,0,0);" transform="rotate(-56.8,1507.6,5375.0)" >DrChr<tspan baseline-shift="-40%" font-size="90%">5</tspan></text>
<path d="M1870.295,5202.133 A2475.000,2475.000 40.000 0,1 1433.211,4915.933 L1385.733,4973.991 A2550.000,2550.000 0.000 0,0 1836.061,5268.865 Z" style="stroke-width:2.0;stroke:rgb(0,0,0);stroke-linecap:round;fill:none;" />
<path d="M1382.551,4873.362 A2475.000,2475.000 40.000 0,1 1025.394,4492.165 L965.557,4537.382 A2550.000,2550.000 0.000 0,0 1333.537,4930.130 Z" style="stroke-width:2.0;stroke:rgb(0,0,0);stroke-linecap:round;fill:rgb(253,180,98);" />
<text x="989.3" y="4955.8" font-size="104.0px" font-family="CMUBright-Roman" style="text-anchor:end;fill:rgb(0,0,0);" transform="rotate(-43.1,989.3,4955.8)" >DrChr<tspan baseline-shift="-40%" font-size="90%">6</tspan></text>
<path d="M1382.551,4873.362 A2475.000,2475.000 40.000 0,1 1025.394,4492.165 L965.557,4537.382 A2550.000,2550.000 0.000 0,0 1333.537,4930.130 Z" style="stroke-width:2.0;stroke:rgb(0,0,0);stroke-linecap:round;fill:none;" />
<path d="M986.208,4438.843 A2475.000,2475.000 40.000 0,1 833.032,4195.773 L767.366,4232.009 A2550.000,2550.000 0.000 0,0 925.184,4482.444 Z" style="stroke-width:2.0;stroke:rgb(0,0,0);stroke-linecap:round;fill:rgb(179,222,105);" />
<text x="655.3" y="4539.6" font-size="104.0px" font-family="CMUBright-Roman" style="text-anchor:end;fill:rgb(0,0,0);" transform="rotate(-32.2,655.3,4539.6)" >DrChr<tspan baseline-shift="-40%" font-size="90%">7</tspan></text>
<path d="M986.208,4438.843 A2475.000,2475.000 40.000 0,1 833.032,4195.773 L767.366,4232.009 A2550.000,2550.000 0.000 0,0 925.184,4482.444 Z" style="stroke-width:2.0;stroke:rgb(0,0,0);stroke-linecap:round;fill:none;" />
<path d="M801.839,4137.414 A2475.000,2475.000 40.000 0,1 633.517,3724.832 L561.805,3746.797 A2550.000,2550.000 0.000 0,0 735.228,4171.882 Z" style="stroke-width:2.0;stroke:rgb(0,0,0);stroke-linecap:round;fill:rgb(252,205,229);" />
<text x="423.1" y="4108.0" font-size="104.0px" font-family="CMUBright-Roman" style="text-anchor:end;fill:rgb(0,0,0);" transform="rotate(-22.2,423.1,4108.0)" >DrChr<tspan baseline-shift="-40%" font-size="90%">8</tspan></text>
<path d="M801.839,4137.414 A2475.000,2475.000 40.000 0,1 633.517,3724.832 L561.805,3746.797 A2550.000,2550.000 0.000 0,0 735.228,4171.882 Z" style="stroke-width:2.0;stroke:rgb(0,0,0);stroke-linecap:round;fill:none;" />
<path d="M614.985,3661.308 A2475.000,2475.000 40.000 0,1 542.922,3297.310 L468.465,3306.319 A2550.000,2550.000 0.000 0,0 542.712,3681.348 Z" style="stroke-width:2.0;stroke:rgb(0,0,0);stroke-linecap:round;fill:rgb(217,217,217);" />
<text x="259.1" y="3596.2" font-size="104.0px" font-family="CMUBright-Roman" style="text-anchor:end;fill:rgb(0,0,0);" transform="rotate(-11.2,259.1,3596.2)" >DrChr<tspan baseline-shift="-40%" font-size="90%">9</tspan></text>
<path d="M614.985,3661.308 A2475.000,2475.000 40.000 0,1 542.922,3297.310 L468.465,3306.319 A2550.000,2550.000 0.000 0,0 542.712,3681.348 Z" style="stroke-width:2.0;stroke:rgb(0,0,0);stroke-linecap:round;fill:none;" />
<path d="M535.852,3231.517 A2475.000,2475.000 40.000 0,1 525.573,2946.763 L450.590,2945.150 A2550.000,2550.000 0.000 0,0 461.181,3238.532 Z" style="stroke-width:2.0;stroke:rgb(0,0,0);stroke-linecap:round;fill:rgb(188,128,189);" />
<text x="199.2" y="3153.6" font-size="104.0px" font-family="CMUBright-Roman" style="text-anchor:end;fill:rgb(0,0,0);" transform="rotate(-2.1,199.2,3153.6)" >DrChr<tspan baseline-shift="-40%" font-size="90%">1</tspan>0</text>
<path d="M535.852,3231.517 A2475.000,2475.000 40.000 0,1 525.573,2946.763 L450.590,2945.150 A2550.000,2550.000 0.000 0,0 461.181,3238.532 Z" style="stroke-width:2.0;stroke:rgb(0,0,0);stroke-linecap:round;fill:none;" />
<path d="M527.880,2880.632 A2475.000,2475.000 40.000 0,1 556.172,2608.425 L482.117,2596.559 A2550.000,2550.000 0.000 0,0 452.968,2877.014 Z" style="stroke-width:2.0;stroke:rgb(0,0,0);stroke-linecap:round;fill:rgb(204,235,197);" />
<text x="205.1" y="2762.3" font-size="104.0px" font-family="CMUBright-Roman" style="text-anchor:end;fill:rgb(0,0,0);" transform="rotate(5.9,205.1,2762.3)" >DrChr<tspan baseline-shift="-40%" font-size="90%">1</tspan>1</text>
<path d="M527.880,2880.632 A2475.000,2475.000 40.000 0,1 556.172,2608.425 L482.117,2596.559 A2550.000,2550.000 0.000 0,0 452.968,2877.014 Z" style="stroke-width:2.0;stroke:rgb(0,0,0);stroke-linecap:round;fill:none;" />
<path d="M567.514,2543.232 A2475.000,2475.000 40.000 0,1 673.543,2155.475 L603.044,2129.883 A2550.000,2550.000 0.000 0,0 493.802,2529.391 Z" style="stroke-width:2.0;stroke:rgb(0,0,0);stroke-linecap:round;fill:rgb(255,237,111);" />
<text x="281.0" y="2310.9" font-size="104.0px" font-family="CMUBright-Roman" style="text-anchor:end;fill:rgb(0,0,0);" transform="rotate(15.3,281.0,2310.9)" >DrChr<tspan baseline-shift="-40%" font-size="90%">1</tspan>2</text>
<path d="M567.514,2543.232 A2475.000,2475.000 40.000 0,1 673.543,2155.475 L603.044,2129.883 A2550.000,2550.000 0.000 0,0 493.802,2529.391 Z" style="stroke-width:2.0;stroke:rgb(0,0,0);stroke-linecap:round;fill:none;" />
<path d="M696.952,2093.582 A2475.000,2475.000 40.000 0,1 911.186,1672.415 L847.889,1632.185 A2550.000,2550.000 0.000 0,0 627.162,2066.115 Z" style="stroke-width:2.0;stroke:rgb(0,0,0);stroke-linecap:round;fill:rgb(0,0,0);" />
<text x="476.5" y="1775.3" font-size="104.0px" font-family="CMUBright-Roman" style="text-anchor:end;fill:rgb(0,0,0);" transform="rotate(27.0,476.5,1775.3)" >DrChr<tspan baseline-shift="-40%" font-size="90%">1</tspan>3</text>
<path d="M696.952,2093.582 A2475.000,2475.000 40.000 0,1 911.186,1672.415 L847.889,1632.185 A2550.000,2550.000 0.000 0,0 627.162,2066.115 Z" style="stroke-width:2.0;stroke:rgb(0,0,0);stroke-linecap:round;fill:none;" />
<path d="M947.424,1617.048 A2475.000,2475.000 40.000 0,1 1097.474,1416.958 L1039.822,1368.987 A2550.000,2550.000 0.000 0,0 885.225,1575.140 Z" style="stroke-width:2.0;stroke:rgb(0,0,0);stroke-linecap:round;fill:rgb(0,0,0);" />
<text x="724.8" y="1359.4" font-size="104.0px" font-family="CMUBright-Roman" style="text-anchor:end;fill:rgb(0,0,0);" transform="rotate(36.9,724.8,1359.4)" >DrChr<tspan baseline-shift="-40%" font-size="90%">1</tspan>4</text>
<path d="M947.424,1617.048 A2475.000,2475.000 40.000 0,1 1097.474,1416.958 L1039.822,1368.987 A2550.000,2550.000 0.000 0,0 885.225,1575.140 Z" style="stroke-width:2.0;stroke:rgb(0,0,0);stroke-linecap:round;fill:none;" />
<path d="M1140.475,1366.662 A2475.000,2475.000 40.000 0,1 1254.684,1245.150 L1201.796,1191.973 A2550.000,2550.000 0.000 0,0 1084.126,1317.167 Z" style="stroke-width:2.0;stroke:rgb(0,0,0);stroke-linecap:round;fill:rgb(0,0,0);" />
<text x="920.5" y="1117.5" font-size="104.0px" font-family="CMUBright-Roman" style="text-anchor:end;fill:rgb(0,0,0);" transform="rotate(43.2,920.5,1117.5)" >DrChr<tspan baseline-shift="-40%" font-size="90%">1</tspan>5</text>
<path d="M1140.475,1366.662 A2475.000,2475.000 40.000 0,1 1254.684,1245.150 L1201.796,1191.973 A2550.000,2550.000 0.000 0,0 1084.126,1317.167 Z" style="stroke-width:2.0;stroke:rgb(0,0,0);stroke-linecap:round;fill:none;" />
<path d="M1302.222,1199.118 A2475.000,2475.000 40.000 0,1 1591.158,965.107 L1548.466,903.443 A2550.000,2550.000 0.000 0,0 1250.774,1144.546 Z" style="stroke-width:2.0;stroke:rgb(0,0,0);stroke-linecap:round;fill:rgb(0,0,0);" />
<text x="1194.1" y="853.7" font-size="104.0px" font-family="CMUBright-Roman" style="text-anchor:end;fill:rgb(0,0,0);" transform="rotate(51.0,1194.1,853.7)" >DrChr<tspan baseline-shift="-40%" font-size="90%">1</tspan>6</text>
<path d="M1302.222,1199.118 A2475.000,2475.000 40.000 0,1 1591.158,965.107 L1548.466,903.443 A2550.000,2550.000 0.000 0,0 1250.774,1144.546 Z" style="stroke-width:2.0;stroke:rgb(0,0,0);stroke-linecap:round;fill:none;" />
<path d="M1646.062,928.170 A2475.000,2475.000 40.000 0,1 1931.521,767.518 L1899.143,699.867 A2550.000,2550.000 0.000 0,0 1605.034,865.388 Z" style="stroke-width:2.0;stroke:rgb(0,0,0);stroke-linecap:round;fill:rgb(0,0,0);" />
<text x="1578.8" y="581.7" font-size="104.0px" font-family="CMUBright-Roman" style="text-anchor:end;fill:rgb(0,0,0);" transform="rotate(60.6,1578.8,581.7)" >DrChr<tspan baseline-shift="-40%" font-size="90%">1</tspan>7</text>
<path d="M1646.062,928.170 A2475.000,2475.000 40.000 0,1 1931.521,767.518 L1899.143,699.867 A2550.000,2550.000 0.000 0,0 1605.034,865.388 Z" style="stroke-width:2.0;stroke:rgb(0,0,0);stroke-linecap:round;fill:none;" />
<path d="M1991.586,739.751 A2475.000,2475.000 40.000 0,1 2332.715,616.650 L2312.494,544.428 A2550.000,2550.000 0.000 0,0 1961.028,671.259 Z" style="stroke-width:2.0;stroke:rgb(0,0,0);stroke-linecap:round;fill:rgb(0,0,0);" />
<text x="1998.7" y="379.8" font-size="104.0px" font-family="CMUBright-Roman" style="text-anchor:end;fill:rgb(0,0,0);" transform="rotate(70.2,1998.7,379.8)" >DrChr<tspan baseline-shift="-40%" font-size="90%">1</tspan>8</text>
<path d="M1991.586,739.751 A2475.000,2475.000 40.000 0,1 2332.715,616.650 L2312.494,544.428 A2550.000,2550.000 0.000 0,0 1961.028,671.259 Z" style="stroke-width:2.0;stroke:rgb(0,0,0);stroke-linecap:round;fill:none;" />
<path d="M2396.669,599.663 A2475.000,2475.000 40.000 0,1 2551.105,566.049 L2537.502,492.293 A2550.000,2550.000 0.000 0,0 2378.386,526.926 Z" style="stroke-width:2.0;stroke:rgb(0,0,0);stroke-linecap:round;fill:rgb(0,0,0);" />
<text x="2352.2" y="270.8" font-size="104.0px" font-family="CMUBright-Roman" style="text-anchor:end;fill:rgb(0,0,0);" transform="rotate(77.7,2352.2,270.8)" >DrChr<tspan baseline-shift="-40%" font-size="90%">1</tspan>9</text>
<path d="M2396.669,599.663 A2475.000,2475.000 40.000 0,1 2551.105,566.049 L2537.502,492.293 A2550.000,2550.000 0.000 0,0 2378.386,526.926 Z" style="stroke-width:2.0;stroke:rgb(0,0,0);stroke-linecap:round;fill:none;" />
<path d="M2616.334,554.918 A2475.000,2475.000 40.000 0,1 2785.071,534.350 L2778.558,459.633 A2550.000,2550.000 0.000 0,0 2604.708,480.825 Z" style="stroke-width:2.0;stroke:rgb(0,0,0);stroke-linecap:round;fill:rgb(0,0,0);" />
<text x="2608.5" y="222.4" font-size="104.0px" font-family="CMUBright-Roman" style="text-anchor:end;fill:rgb(0,0,0);" transform="rotate(83.1,2608.5,222.4)" >DrChr<tspan baseline-shift="-40%" font-size="90%">2</tspan>0</text>
<path d="M2616.334,554.918 A2475.000,2475.000 40.000 0,1 2785.071,534.350 L2778.558,459.633 A2550.000,2550.000 0.000 0,0 2604.708,480.825 Z" style="stroke-width:2.0;stroke:rgb(0,0,0);stroke-linecap:round;fill:none;" />
<path d="M2851.064,529.485 A2475.000,2475.000 40.000 0,1 2933.834,525.885 L2931.829,450.911 A2550.000,2550.000 0.000 0,0 2846.550,454.621 Z" style="stroke-width:2.0;stroke:rgb(0,0,0);stroke-linecap:round;fill:rgb(0,0,0);" />
<text x="2825.7" y="200.4" font-size="104.0px" font-family="CMUBright-Roman" style="text-anchor:end;fill:rgb(0,0,0);" transform="rotate(87.5,2825.7,200.4)" >DrChr<tspan baseline-shift="-40%" font-size="90%">2</tspan>1</text>
<path d="M2851.064,529.485 A2475.000,2475.000 40.000 0,1 2933.834,525.885 L2931.829,450.911 A2550.000,2550.000 0.000 0,0 2846.550,454.621 Z" style="stroke-width:2.0;stroke:rgb(0,0,0);stroke-linecap:round;fill:none;" />
</g>
<g id="track_0">
<path d="M 3462.7,5507.7 L 3439.8,5382.1 3417.3,5255.9 3395.4,5129.3 3373.9,5002.2 3352.9,4874.7 3332.5,4746.7 3312.7,4618.3 3293.6,4489.6 3275.0,4360.5 3257.1,4231.1 3239.9,4101.4 3223.3,3971.4 3207.4,3841.1 3192.3,3710.6 3177.9,3580.0 3164.2,3449.1 3151.3,3318.1 3139.1,3187.0 3127.7,3055.7 3117.0,2924.4 3107.1,2793.0 3097.9,2661.7 3089.6,2530.3 3081.9,2398.9 3075.1,2267.6 3069.0,2136.4 3063.6,2005.3 3058.9,1874.4 3055.0,1743.6 3051.8,1613.0 3049.3,1482.6 3047.4,1352.4 3046.2,1222.5 3045.7,1093.0 3045.8,963.7 3046.5,834.8 3047.7,706.3 3049.5,578.2 3051.9,450.5  " style="stroke-opacity: 1.000000; stroke-width: 2.0; stroke: rgb(0,0,0); fill: none"  />
<path d="M 3462.7,5507.7 L 3439.8,5382.1 3417.3,5255.9 3395.3,5129.3 3373.9,5002.2 3352.9,4874.7 3332.5,4746.7 3312.7,4618.3 3293.5,4489.6 3275.0,4360.5 3257.1,4231.1 3239.8,4101.4 3223.3,3971.4 3207.4,3841.1 3192.3,3710.6 3177.9,3580.0 3164.2,3449.1 3151.3,3318.1 3139.1,3187.0 3127.7,3055.7 3117.0,2924.4 3107.1,2793.0 3097.9,2661.7 3089.6,2530.3 3081.9,2398.9 3075.1,2267.6 3069.0,2136.4 3063.6,2005.3 3058.9,1874.4 3055.0,1743.6 3051.8,1613.0 3049.3,1482.6 3047.4,1352.4 3046.2,1222.5 3045.7,1093.0 3045.8,963.7 3046.5,834.8 3047.7,706.3 3049.5,578.2 3051.9,450.5  " style="stroke-opacity: 1.000000; stroke-width: 2.0; stroke: rgb(0,0,0); fill: none"  />
<path d="M 3462.7,5507.7 L 3439.8,5382.1 3417.3,5255.9 3395.3,5129.3 3373.8,5002.2 3352.9,4874.7 3332.5,4746.7 3312.7,4618.3 3293.5,4489.6 3275.0,4360.5 3257.1,4231.1 3239.8,4101.4 3223.3,3971.4 3207.4,3841.1 3192.3,3710.6 3177.9,3580.0 3164.2,3449.1 3151.3,3318.1 3139.1,3187.0 3127.7,3055.7 3117.0,2924.4 3107.1,2793.0 3098.0,2661.7 3089.6,2530.3 3081.9,2398.9 3075.1,2267.6 3069.0,2136.4 3063.6,2005.3 3058.9,1874.4 3055.0,1743.6 3051.8,1613.0 3049.3,1482.6 3047.4,1352.4 3046.2,1222.5 3045.7,1093.0 3045.8,963.7 3046.5,834.8 3047.7,706.3 3049.6,578.2 3051.9,450.5  " style="stroke-opacity: 1.000000; stroke-width: 2.0; stroke: rgb(0,0,0); fill: none"  />
<path d="M 3462.7,5507.7 L 3439.8,5382.1 3417.3,5255.9 3395.3,5129.3 3373.8,5002.2 3352.9,4874.7 3332.5,4746.7 3312.7,4618.3 3293.5,4489.6 3275.0,4360.5 3257.1,4231.1 3239.8,4101.4 3223.3,3971.4 3207.4,3841.1 3192.3,3710.6 3177.9,3580.0 3164.2,3449.1 3151.3,3318.1 3139.1,3187.0 3127.7,3055.7 3117.0,2924.4 3107.1,2793.1 3098.0,2661.7 3089.6,2530.3 3082.0,2398.9 3075.1,2267.6 3069.0,2136.4 3063.6,2005.3 3059.0,1874.4 3055.0,1743.6 3051.8,1613.0 3049.3,1482.6 3047.4,1352.4 3046.3,1222.5 3045.7,1093.0 3045.8,963.7 3046.5,834.8 3047.8,706.3 3049.6,578.2 3051.9,450.5  " style="stroke-opacity: 1.000000; stroke-width: 2.0; stroke: rgb(0,0,0); fill: none"  />
<path d="M 3462.7,5507.7 L 3439.7,5382.1 3417.3,5255.9 3395.3,5129.3 3373.8,5002.2 3352.9,4874.7 3332.5,4746.7 3312.7,4618.3 3293.5,4489.6 3275.0,4360.5 3257.1,4231.1 3239.8,4101.4 3223.3,3971.4 3207.4,3841.1 3192.3,3710.6 3177.9,3580.0 3164.2,3449.1 3151.3,3318.1 3139.1,3187.0 3127.7,3055.7 3117.0,2924.4 3107.1,2793.1 3098.0,2661.7 3089.6,2530.3 3082.0,2398.9 3075.1,2267.6 3069.0,2136.4 3063.6,2005.3 3059.0,1874.4 3055.0,1743.6 3051.8,1613.0 3049.3,1482.6 3047.5,1352.4 3046.3,1222.5 3045.7,1093.0 3045.8,963.7 3046.5,834.8 3047.8,706.3 3049.6,578.2 3051.9,450.5  " style="stroke-opacity: 1.000000; stroke-width: 2.0; stroke: rgb(0,0,0); fill: none"  />
<path d="M 3446.9,5510.5 L 3425.1,5385.9 3403.9,5260.7 3383.4,5134.7 3363.6,5008.2 3344.5,4881.1 3326.2,4753.4 3308.8,4625.2 3292.2,4496.5 3276.4,4367.4 3261.6,4237.9 3247.8,4108.0 3234.9,3977.8 3222.9,3847.3 3212.0,3716.5 3202.0,3585.5 3193.1,3454.2 3185.3,3322.8 3178.5,3191.3 3172.7,3059.7 3168.0,2928.1 3164.3,2796.4 3161.7,2664.7 3160.1,2533.1 3159.6,2401.6 3160.1,2270.2 3161.6,2138.9 3164.2,2007.9 3167.8,1877.1 3172.3,1746.5 3177.8,1616.3 3184.2,1486.4 3191.5,1356.9 3199.8,1227.8 3208.9,1099.1 3218.8,970.9 3229.5,843.3 3240.9,716.2 3253.1,589.7 3265.9,463.9  " style="stroke-opacity: 1.000000; stroke-width: 2.0; stroke: rgb(0,0,0); fill: none"  />
<path d="M 3446.3,5510.6 L 3424.5,5386.0 3403.4,5260.7 3382.9,5134.8 3363.1,5008.3 3344.1,4881.1 3325.8,4753.4 3308.4,4625.3 3291.8,4496.6 3276.1,4367.5 3261.3,4238.0 3247.5,4108.1 3234.6,3977.8 3222.7,3847.3 3211.8,3716.5 3201.9,3585.5 3193.0,3454.3 3185.1,3322.9 3178.3,3191.4 3172.6,3059.8 3167.9,2928.1 3164.2,2796.4 3161.6,2664.7 3160.1,2533.1 3159.6,2401.6 3160.1,2270.2 3161.7,2139.0 3164.2,2007.9 3167.8,1877.1 3172.4,1746.5 3177.9,1616.3 3184.3,1486.4 3191.7,1356.9 3199.9,1227.8 3209.0,1099.1 3218.9,971.0 3229.6,843.3 3241.1,716.2 3253.2,589.8 3266.1,463.9  " style="stroke-opacity: 1.000000; stroke-width: 2.0; stroke: rgb(0,0,0); fill: none"  />
<path d="M 3446.3,5510.6 L 3424.5,5386.0 3403.3,5260.7 3382.9,5134.8 3363.1,5008.3 3344.0,4881.1 3325.8,4753.4 3308.4,4625.3 3291.8,4496.6 3276.1,4367.5 3261.3,4238.0 3247.5,4108.1 3234.6,3977.9 3222.7,3847.3 3211.8,3716.5 3201.8,3585.5 3193.0,3454.3 3185.1,3322.9 3178.3,3191.4 3172.6,3059.8 3167.9,2928.1 3164.2,2796.4 3161.6,2664.7 3160.1,2533.1 3159.6,2401.6 3160.1,2270.2 3161.7,2139.0 3164.2,2007.9 3167.8,1877.1 3172.4,1746.5 3177.9,1616.3 3184.3,1486.4 3191.7,1356.9 3199.9,1227.8 3209.0,1099.1 3218.9,971.0 3229.6,843.3 3241.1,716.2 3253.3,589.8 3266.1,463.9  " style="stroke-opacity: 1.000000; stroke-width: 2.0; stroke: rgb(0,0,0); fill: none"  />
<path d="M 3445.9,5510.7 L 3424.2,5386.1 3403.0,5260.8 3382.5,5134.9 3362.8,5008.3 3343.8,4881.2 3325.5,4753.5 3308.1,4625.3 3291.6,4496.6 3275.9,4367.5 3261.1,4238.0 3247.3,4108.1 3234.4,3977.9 3222.5,3847.3 3211.6,3716.5 3201.7,3585.5 3192.8,3454.3 3185.0,3322.9 3178.2,3191.4 3172.4,3059.8 3167.7,2928.1 3164.1,2796.4 3161.5,2664.8 3160.0,2533.1 3159.5,2401.6 3160.0,2270.2 3161.5,2139.0 3164.1,2007.9 3167.7,1877.1 3172.2,1746.6 3177.7,1616.3 3184.2,1486.4 3191.5,1356.9 3199.8,1227.8 3208.8,1099.1 3218.8,971.0 3229.5,843.3 3240.9,716.2 3253.1,589.7 3265.9,463.9  " style="stroke-opacity: 1.000000; stroke-width: 2.0; stroke: rgb(0,0,0); fill: none"  />
<path d="M 3445.9,5510.7 L 3424.2,5386.1 3403.0,5260.8 3382.5,5134.9 3362.8,5008.3 3343.8,4881.2 3325.5,4753.5 3308.1,4625.3 3291.6,4496.6 3275.9,4367.5 3261.1,4238.0 3247.3,4108.1 3234.4,3977.9 3222.5,3847.3 3211.6,3716.5 3201.7,3585.5 3192.8,3454.3 3185.0,3322.9 3178.2,3191.4 3172.4,3059.8 3167.7,2928.1 3164.1,2796.4 3161.5,2664.8 3160.0,2533.1 3159.5,2401.6 3160.0,2270.2 3161.5,2139.0 3164.1,2007.9 3167.7,1877.1 3172.2,1746.6 3177.7,1616.3 3184.2,1486.4 3191.5,1356.9 3199.8,1227.8 3208.8,1099.1 3218.8,971.0 3229.5,843.3 3240.9,716.2 3253.1,589.7 3265.9,463.9  " style="stroke-opacity: 1.000000; stroke-width: 2.0; stroke: rgb(0,0,0); fill: none"  />
<path d="M 3445.4,5510.8 L 3423.6,5386.2 3402.5,5260.9 3382.0,5134.9 3362.3,5008.4 3343.3,4881.2 3325.1,4753.5 3307.7,4625.3 3291.2,4496.7 3275.5,4367.6 3260.8,4238.0 3247.0,4108.1 3234.1,3977.9 3222.2,3847.4 3211.3,3716.6 3201.5,3585.5 3192.6,3454.3 3184.8,3322.9 3178.0,3191.4 3172.3,3059.8 3167.6,2928.1 3164.0,2796.4 3161.4,2664.8 3159.9,2533.2 3159.4,2401.6 3159.9,2270.2 3161.5,2139.0 3164.1,2007.9 3167.6,1877.1 3172.2,1746.6 3177.7,1616.3 3184.1,1486.4 3191.5,1356.9 3199.7,1227.8 3208.8,1099.1 3218.8,971.0 3229.5,843.3 3240.9,716.2 3253.1,589.8 3265.9,463.9  " style="stroke-opacity: 1.000000; stroke-width: 2.0; stroke: rgb(0,0,0); fill: none"  />
<path d="M 3445.4,5510.8 L 3423.6,5386.2 3402.5,5260.9 3382.0,5134.9 3362.3,5008.4 3343.3,4881.2 3325.1,4753.5 3307.7,4625.3 3291.2,4496.7 3275.5,4367.6 3260.8,4238.0 3247.0,4108.1 3234.1,3977.9 3222.2,3847.4 3211.3,3716.6 3201.5,3585.5 3192.6,3454.3 3184.8,3322.9 3178.0,3191.4 3172.3,3059.8 3167.6,2928.1 3164.0,2796.4 3161.4,2664.8 3159.9,2533.2 3159.4,2401.6 3159.9,2270.2 3161.5,2139.0 3164.1,2007.9 3167.6,1877.1 3172.2,1746.6 3177.7,1616.3 3184.2,1486.4 3191.5,1356.9 3199.7,1227.8 3208.8,1099.1 3218.8,971.0 3229.5,843.3 3240.9,716.2 3253.1,589.8 3265.9,463.9  " style="stroke-opacity: 1.000000; stroke-width: 2.0; stroke: rgb(0,0,0); fill: none"  />
<path d="M 3443.4,5511.2 L 3421.7,5386.5 3400.7,5261.2 3380.4,5135.2 3360.7,5008.6 3341.8,4881.5 3323.7,4753.7 3306.4,4625.5 3289.9,4496.8 3274.4,4367.7 3259.7,4238.2 3246.0,4108.3 3233.2,3978.0 3221.4,3847.5 3210.5,3716.7 3200.7,3585.6 3191.9,3454.4 3184.2,3323.0 3177.5,3191.5 3171.8,3059.9 3167.2,2928.2 3163.6,2796.5 3161.0,2664.9 3159.6,2533.2 3159.1,2401.7 3159.7,2270.3 3161.3,2139.1 3163.9,2008.0 3167.5,1877.2 3172.1,1746.6 3177.6,1616.4 3184.1,1486.5 3191.5,1357.0 3199.7,1227.8 3208.8,1099.2 3218.7,971.0 3229.5,843.4 3240.9,716.3 3253.1,589.8 3265.9,463.9  " style="stroke-opacity: 1.000000; stroke-width: 2.0; stroke: rgb(0,0,0); fill: none"  />
<path d="M 3426.3,5514.1 L 3405.5,5389.2 3385.3,5263.7 3365.7,5137.5 3346.9,5010.7 3328.7,4883.4 3311.4,4755.5 3294.8,4627.2 3279.1,4498.4 3264.3,4369.1 3250.3,4239.5 3237.2,4109.5 3225.1,3979.1 3213.9,3848.5 3203.8,3717.6 3194.5,3586.6 3186.3,3455.3 3179.1,3323.8 3172.9,3192.3 3167.8,3060.6 3163.6,2928.9 3160.5,2797.2 3158.4,2665.6 3157.4,2533.9 3157.3,2402.4 3158.3,2271.0 3160.2,2139.7 3163.2,2008.7 3167.1,1877.8 3172.0,1747.3 3177.8,1617.0 3184.5,1487.1 3192.1,1357.5 3200.5,1228.4 3209.8,1099.7 3219.9,971.5 3230.8,843.7 3242.3,716.6 3254.6,590.0 3267.6,464.1  " style="stroke-opacity: 1.000000; stroke-width: 2.0; stroke: rgb(0,0,0); fill: none"  />
<path d="M 3426.3,5514.1 L 3405.5,5389.2 3385.3,5263.7 3365.7,5137.5 3346.8,5010.7 3328.7,4883.4 3311.4,4755.5 3294.8,4627.2 3279.1,4498.4 3264.2,4369.1 3250.3,4239.5 3237.2,4109.5 3225.1,3979.1 3213.9,3848.5 3203.8,3717.7 3194.5,3586.6 3186.3,3455.3 3179.1,3323.8 3172.9,3192.3 3167.8,3060.6 3163.6,2928.9 3160.5,2797.2 3158.4,2665.6 3157.4,2533.9 3157.3,2402.4 3158.3,2271.0 3160.3,2139.7 3163.2,2008.7 3167.1,1877.8 3172.0,1747.3 3177.8,1617.0 3184.5,1487.1 3192.1,1357.5 3200.5,1228.4 3209.8,1099.7 3219.9,971.5 3230.8,843.7 3242.4,716.6 3254.7,590.0 3267.6,464.1  " style="stroke-opacity: 1.000000; stroke-width: 2.0; stroke: rgb(0,0,0); fill: none"  />
<path d="M 3729.9,5443.3 L 3697.0,5329.7 3665.6,5214.6 3636.0,5097.9 3608.3,4980.0 3582.6,4860.8 3559.1,4740.5 3537.9,4619.2 3519.0,4497.0 3502.7,4374.0 3489.0,4250.3 3477.9,4126.1 3469.6,4001.3 3464.2,3876.2 3461.5,3750.9 3461.8,3625.3 3465.1,3499.7 3471.3,3374.1 3480.6,3248.7 3492.8,3123.5 3508.0,2998.5 3526.2,2874.0 3547.4,2750.0 3571.5,2626.6 3598.5,2503.9 3628.4,2382.0 3661.1,2260.9 3696.4,2140.8 3734.5,2021.7 3775.0,1903.7 3818.1,1787.0 3863.5,1671.5 3911.1,1557.4 3960.8,1444.8 4012.5,1333.6 4066.1,1224.1 4121.3,1116.3 4178.1,1010.2 4236.2,905.9 4295.5,803.6  " style="stroke-opacity: 1.000000; stroke-width: 2.0; stroke: rgb(0,0,0); fill: none"  />
<path d="M 3729.9,5443.3 L 3696.9,5329.7 3665.6,5214.6 3636.0,5098.0 3608.3,4980.0 3582.6,4860.8 3559.1,4740.5 3537.9,4619.2 3519.0,4497.0 3502.7,4374.0 3489.0,4250.3 3477.9,4126.1 3469.6,4001.3 3464.2,3876.2 3461.5,3750.9 3461.8,3625.3 3465.1,3499.7 3471.3,3374.1 3480.6,3248.7 3492.8,3123.5 3508.0,2998.5 3526.2,2874.0 3547.4,2750.0 3571.5,2626.6 3598.5,2503.9 3628.4,2382.0 3661.1,2260.9 3696.4,2140.8 3734.5,2021.7 3775.0,1903.8 3818.1,1787.0 3863.5,1671.5 3911.1,1557.4 3960.8,1444.8 4012.6,1333.6 4066.1,1224.1 4121.4,1116.3 4178.1,1010.2 4236.2,905.9 4295.5,803.6  " style="stroke-opacity: 1.000000; stroke-width: 2.0; stroke: rgb(0,0,0); fill: none"  />
<path d="M 3727.3,5444.1 L 3694.3,5330.2 3663.0,5214.8 3633.3,5097.9 3605.5,4979.7 3579.8,4860.3 3556.1,4739.7 3534.6,4618.1 3515.6,4495.7 3498.9,4372.4 3484.8,4248.5 3473.3,4123.9 3464.6,3998.9 3458.5,3873.5 3455.3,3747.8 3454.9,3621.9 3457.5,3495.9 3462.9,3369.9 3471.3,3244.0 3482.6,3118.3 3496.8,2992.9 3514.0,2867.9 3534.1,2743.3 3557.0,2619.3 3582.8,2496.0 3611.4,2373.4 3642.8,2251.6 3676.8,2130.7 3713.4,2010.9 3752.5,1892.1 3794.1,1774.5 3837.9,1658.1 3884.0,1543.0 3932.1,1429.4 3982.2,1317.2 4034.2,1206.6 4087.8,1097.6 4142.9,990.4 4199.3,884.9 4257.0,781.3  " style="stroke-opacity: 1.000000; stroke-width: 2.0; stroke: rgb(0,0,0); fill: none"  />
<path d="M 3727.3,5444.1 L 3694.3,5330.2 3663.0,5214.8 3633.3,5097.9 3605.5,4979.7 3579.7,4860.3 3556.1,4739.7 3534.6,4618.1 3515.6,4495.7 3498.9,4372.4 3484.8,4248.5 3473.3,4123.9 3464.6,3998.9 3458.5,3873.5 3455.3,3747.8 3454.9,3621.9 3457.5,3495.9 3462.9,3369.9 3471.3,3244.0 3482.6,3118.3 3496.8,2992.9 3514.0,2867.9 3534.1,2743.3 3557.0,2619.4 3582.8,2496.0 3611.4,2373.4 3642.8,2251.6 3676.8,2130.7 3713.4,2010.9 3752.5,1892.1 3794.1,1774.5 3837.9,1658.1 3884.0,1543.0 3932.1,1429.4 3982.3,1317.2 4034.2,1206.6 4087.8,1097.6 4142.9,990.4 4199.3,884.9 4257.0,781.3  " style="stroke-opacity: 1.000000; stroke-width: 2.0; stroke: rgb(0,0,0); fill: none"  />
<path d="M 3727.2,5444.1 L 3694.3,5330.2 3663.0,5214.8 3633.3,5097.9 3605.5,4979.7 3579.7,4860.3 3556.1,4739.7 3534.6,4618.2 3515.5,4495.7 3498.9,4372.4 3484.8,4248.5 3473.3,4123.9 3464.6,3998.9 3458.5,3873.5 3455.3,3747.8 3454.9,3621.9 3457.5,3495.9 3462.9,3369.9 3471.3,3244.0 3482.6,3118.3 3496.8,2992.9 3514.0,2867.9 3534.1,2743.3 3557.0,2619.4 3582.8,2496.0 3611.4,2373.4 3642.8,2251.6 3676.8,2130.8 3713.4,2010.9 3752.5,1892.1 3794.1,1774.5 3837.9,1658.1 3884.0,1543.0 3932.1,1429.4 3982.3,1317.2 4034.2,1206.6 4087.8,1097.6 4142.9,990.4 4199.4,884.9 4257.0,781.3  " style="stroke-opacity: 1.000000; stroke-width: 2.0; stroke: rgb(0,0,0); fill: none"  />
<path d="M 3727.2,5444.1 L 3694.3,5330.2 3663.0,5214.8 3633.3,5097.9 3605.5,4979.7 3579.7,4860.3 3556.1,4739.7 3534.6,4618.2 3515.5,4495.7 3498.9,4372.4 3484.8,4248.5 3473.3,4123.9 3464.6,3998.9 3458.5,3873.5 3455.3,3747.8 3454.9,3621.9 3457.5,3495.9 3462.9,3369.9 3471.3,3244.0 3482.6,3118.3 3496.8,2992.9 3514.0,2867.9 3534.1,2743.3 3557.0,2619.4 3582.8,2496.0 3611.4,2373.4 3642.8,2251.6 3676.8,2130.8 3713.4,2010.9 3752.5,1892.1 3794.1,1774.5 3837.9,1658.1 3884.0,1543.0 3932.1,1429.4 3982.3,1317.2 4034.2,1206.6 4087.8,1097.6 4142.9,990.4 4199.4,884.9 4257.0,781.3  " style="stroke-opacity: 1.000000; stroke-width: 2.0; stroke: rgb(0,0,0); fill: none"  />
<path d="M 3722.0,5445.7 L 3688.7,5330.0 3656.7,5212.8 3626.2,5094.4 3597.3,4974.6 3570.1,4853.7 3544.6,4731.8 3521.1,4608.8 3499.6,4484.9 3480.1,4360.2 3462.9,4234.7 3447.8,4108.6 3435.0,3982.0 3424.6,3854.8 3416.5,3727.3 3410.9,3599.4 3407.7,3471.3 3407.1,3343.0 3408.9,3214.7 3413.2,3086.4 3420.1,2958.2 3429.5,2830.1 3441.3,2702.3 3455.7,2574.9 3472.5,2447.8 3491.7,2321.3 3513.3,2195.3 3537.2,2070.0 3563.5,1945.4 3591.9,1821.7 3622.5,1698.8 3655.1,1576.8 3689.7,1456.0 3726.2,1336.2 3764.5,1217.6 3804.4,1100.3 3846.0,984.4 3888.9,869.8 3933.2,756.8 3978.7,645.3  " style="stroke-opacity: 1.000000; stroke-width: 2.0; stroke: rgb(0,0,0); fill: none"  />
<path d="M 3722.0,5445.7 L 3688.7,5330.0 3656.7,5212.8 3626.2,5094.4 3597.3,4974.6 3570.0,4853.7 3544.6,4731.8 3521.1,4608.8 3499.6,4484.9 3480.1,4360.2 3462.9,4234.7 3447.8,4108.6 3435.0,3982.0 3424.6,3854.8 3416.5,3727.3 3410.9,3599.4 3407.7,3471.3 3407.1,3343.0 3408.9,3214.7 3413.2,3086.4 3420.1,2958.2 3429.5,2830.1 3441.3,2702.3 3455.7,2574.9 3472.5,2447.8 3491.7,2321.3 3513.3,2195.3 3537.3,2070.0 3563.5,1945.4 3591.9,1821.7 3622.5,1698.8 3655.1,1576.8 3689.7,1456.0 3726.2,1336.2 3764.5,1217.6 3804.5,1100.3 3846.0,984.4 3888.9,869.8 3933.2,756.8 3978.7,645.3  " style="stroke-opacity: 1.000000; stroke-width: 2.0; stroke: rgb(0,0,0); fill: none"  />
<path d="M 3722.0,5445.7 L 3688.7,5330.0 3656.7,5212.8 3626.2,5094.4 3597.3,4974.6 3570.0,4853.7 3544.6,4731.8 3521.1,4608.8 3499.6,4484.9 3480.1,4360.2 3462.8,4234.7 3447.8,4108.6 3435.0,3982.0 3424.6,3854.8 3416.5,3727.3 3410.9,3599.4 3407.7,3471.3 3407.1,3343.0 3408.9,3214.7 3413.2,3086.4 3420.1,2958.2 3429.5,2830.1 3441.3,2702.3 3455.7,2574.9 3472.5,2447.8 3491.7,2321.3 3513.3,2195.3 3537.3,2070.0 3563.5,1945.4 3591.9,1821.7 3622.5,1698.8 3655.1,1576.8 3689.7,1456.0 3726.2,1336.2 3764.5,1217.6 3804.5,1100.3 3846.0,984.4 3889.0,869.8 3933.2,756.8 3978.7,645.3  " style="stroke-opacity: 1.000000; stroke-width: 2.0; stroke: rgb(0,0,0); fill: none"  />
<path d="M 3722.0,5445.7 L 3688.7,5330.0 3656.7,5212.8 3626.2,5094.4 3597.3,4974.6 3570.0,4853.7 3544.6,4731.8 3521.1,4608.8 3499.6,4484.9 3480.1,4360.2 3462.8,4234.8 3447.8,4108.7 3435.0,3982.0 3424.6,3854.8 3416.5,3727.3 3410.9,3599.4 3407.7,3471.3 3407.1,3343.0 3408.9,3214.7 3413.2,3086.4 3420.1,2958.2 3429.5,2830.1 3441.3,2702.3 3455.7,2574.9 3472.5,2447.8 3491.7,2321.3 3513.3,2195.3 3537.3,2070.0 3563.5,1945.4 3591.9,1821.7 3622.5,1698.8 3655.1,1576.8 3689.7,1456.0 3726.2,1336.2 3764.5,1217.6 3804.5,1100.3 3846.0,984.4 3889.0,869.8 3933.2,756.8 3978.7,645.3  " style="stroke-opacity: 1.000000; stroke-width: 2.0; stroke: rgb(0,0,0); fill: none"  />
<path d="M 3718.2,5446.8 L 3685.0,5331.0 3653.2,5213.8 3622.9,5095.3 3594.1,4975.5 3567.1,4854.5 3541.8,4732.5 3518.4,4609.4 3497.0,4485.5 3477.7,4360.7 3460.6,4235.2 3445.6,4109.1 3433.0,3982.4 3422.7,3855.2 3414.7,3727.6 3409.2,3599.7 3406.1,3471.5 3405.6,3343.2 3407.5,3214.9 3411.9,3086.5 3418.8,2958.3 3428.2,2830.2 3440.1,2702.4 3454.5,2574.9 3471.4,2447.8 3490.6,2321.3 3512.2,2195.3 3536.2,2069.9 3562.4,1945.3 3590.8,1821.5 3621.4,1698.6 3654.0,1576.6 3688.6,1455.7 3725.1,1335.9 3763.3,1217.3 3803.3,1099.9 3844.7,983.9 3887.7,869.4 3931.9,756.3 3977.3,644.7  " style="stroke-opacity: 1.000000; stroke-width: 2.0; stroke: rgb(0,0,0); fill: none"  />
<path d="M 3718.2,5446.8 L 3685.0,5331.0 3653.2,5213.8 3622.9,5095.3 3594.1,4975.5 3567.0,4854.5 3541.8,4732.5 3518.4,4609.4 3497.0,4485.5 3477.7,4360.7 3460.6,4235.2 3445.6,4109.1 3433.0,3982.4 3422.7,3855.2 3414.7,3727.6 3409.2,3599.7 3406.1,3471.5 3405.6,3343.2 3407.5,3214.9 3411.9,3086.5 3418.8,2958.3 3428.2,2830.2 3440.1,2702.4 3454.5,2574.9 3471.4,2447.8 3490.6,2321.3 3512.3,2195.3 3536.2,2069.9 3562.4,1945.3 3590.8,1821.5 3621.4,1698.6 3654.0,1576.6 3688.6,1455.7 3725.1,1335.9 3763.3,1217.3 3803.3,1100.0 3844.8,983.9 3887.7,869.4 3931.9,756.3 3977.3,644.7  " style="stroke-opacity: 1.000000; stroke-width: 2.0; stroke: rgb(0,0,0); fill: none"  />
<path d="M 3718.1,5446.8 L 3685.0,5331.0 3653.2,5213.8 3622.9,5095.3 3594.1,4975.5 3567.0,4854.5 3541.8,4732.5 3518.4,4609.4 3497.0,4485.5 3477.7,4360.7 3460.6,4235.2 3445.6,4109.1 3433.0,3982.4 3422.7,3855.2 3414.7,3727.6 3409.2,3599.7 3406.1,3471.5 3405.6,3343.2 3407.5,3214.9 3411.9,3086.5 3418.8,2958.3 3428.2,2830.2 3440.1,2702.4 3454.5,2574.9 3471.4,2447.8 3490.6,2321.3 3512.3,2195.3 3536.2,2069.9 3562.4,1945.3 3590.8,1821.5 3621.4,1698.6 3654.0,1576.6 3688.6,1455.7 3725.1,1335.9 3763.3,1217.3 3803.3,1100.0 3844.8,984.0 3887.7,869.4 3931.9,756.3 3977.3,644.7  " style="stroke-opacity: 1.000000; stroke-width: 2.0; stroke: rgb(0,0,0); fill: none"  />
<path d="M 3718.1,5446.8 L 3685.0,5331.0 3653.2,5213.8 3622.9,5095.3 3594.1,4975.5 3567.0,4854.5 3541.8,4732.5 3518.4,4609.4 3497.0,4485.5 3477.7,4360.7 3460.6,4235.2 3445.6,4109.1 3433.0,3982.4 3422.7,3855.2 3414.7,3727.6 3409.2,3599.7 3406.1,3471.5 3405.5,3343.2 3407.5,3214.9 3411.9,3086.5 3418.8,2958.3 3428.2,2830.2 3440.1,2702.4 3454.5,2574.9 3471.4,2447.9 3490.6,2321.3 3512.3,2195.3 3536.2,2069.9 3562.4,1945.3 3590.9,1821.5 3621.4,1698.6 3654.0,1576.6 3688.6,1455.7 3725.1,1335.9 3763.4,1217.3 3803.3,1100.0 3844.8,984.0 3887.7,869.4 3931.9,756.3 3977.3,644.7  " style="stroke-opacity: 1.000000; stroke-width: 2.0; stroke: rgb(0,0,0); fill: none"  />
<path d="M 3718.1,5446.8 L 3685.0,5331.0 3653.2,5213.8 3622.9,5095.3 3594.1,4975.5 3567.0,4854.5 3541.8,4732.5 3518.4,4609.4 3497.0,4485.5 3477.7,4360.7 3460.6,4235.2 3445.6,4109.1 3433.0,3982.4 3422.7,3855.2 3414.7,3727.6 3409.2,3599.7 3406.1,3471.5 3405.5,3343.2 3407.5,3214.9 3411.9,3086.5 3418.8,2958.3 3428.2,2830.2 3440.1,2702.4 3454.5,2574.9 3471.4,2447.9 3490.6,2321.3 3512.3,2195.3 3536.2,2069.9 3562.4,1945.3 3590.9,1821.5 3621.4,1698.6 3654.0,1576.6 3688.6,1455.7 3725.1,1335.9 3763.4,1217.3 3803.3,1100.0 3844.8,984.0 3887.7,869.4 3931.9,756.3 3977.3,644.7  " style="stroke-opacity: 1.000000; stroke-width: 2.0; stroke: rgb(0,0,0); fill: none"  />
<path d="M 3714.6,5447.8 L 3681.4,5331.6 3649.6,5214.0 3619.2,5095.1 3590.3,4975.0 3563.1,4853.7 3537.6,4731.4 3513.9,4608.1 3492.1,4483.8 3472.3,4358.8 3454.6,4233.0 3439.0,4106.6 3425.6,3979.6 3414.4,3852.1 3405.6,3724.2 3399.0,3595.9 3394.9,3467.4 3393.1,3338.8 3393.7,3210.0 3396.7,3081.2 3402.1,2952.5 3410.0,2824.0 3420.2,2695.6 3432.9,2567.5 3447.9,2439.9 3465.2,2312.6 3484.8,2185.9 3506.7,2059.8 3530.8,1934.4 3557.0,1809.7 3585.3,1685.9 3615.5,1563.0 3647.7,1441.0 3681.7,1320.1 3717.5,1200.4 3754.9,1081.8 3793.8,964.6 3834.1,848.7 3875.8,734.2 3918.6,621.2  " style="stroke-opacity: 1.000000; stroke-width: 2.0; stroke: rgb(0,0,0); fill: none"  />
<path d="M 3714.5,5447.8 L 3681.4,5331.6 3649.6,5214.1 3619.2,5095.1 3590.3,4975.0 3563.1,4853.7 3537.5,4731.4 3513.8,4608.1 3492.1,4483.8 3472.3,4358.8 3454.6,4233.0 3439.0,4106.6 3425.6,3979.6 3414.4,3852.1 3405.6,3724.2 3399.0,3595.9 3394.9,3467.5 3393.1,3338.8 3393.7,3210.0 3396.7,3081.2 3402.1,2952.5 3410.0,2824.0 3420.3,2695.6 3432.9,2567.5 3447.9,2439.9 3465.2,2312.6 3484.9,2185.9 3506.7,2059.8 3530.8,1934.4 3557.0,1809.7 3585.3,1685.9 3615.5,1563.0 3647.7,1441.0 3681.7,1320.2 3717.5,1200.4 3754.9,1081.9 3793.8,964.6 3834.1,848.7 3875.8,734.2 3918.6,621.2  " style="stroke-opacity: 1.000000; stroke-width: 2.0; stroke: rgb(0,0,0); fill: none"  />
<path d="M 3655.9,5464.2 L 3625.5,5347.3 3596.5,5229.0 3569.0,5109.4 3543.0,4988.6 3518.7,4866.7 3496.1,4743.8 3475.4,4620.0 3456.6,4495.3 3439.8,4369.8 3425.1,4243.7 3412.6,4116.9 3402.3,3989.6 3394.2,3861.9 3388.5,3733.8 3385.1,3605.5 3384.0,3477.0 3385.4,3348.3 3389.1,3219.6 3395.3,3090.9 3403.9,2962.4 3414.9,2834.1 3428.2,2706.0 3444.0,2578.4 3462.2,2451.1 3482.6,2324.3 3505.4,2198.2 3530.3,2072.7 3557.5,1947.9 3586.7,1823.9 3618.1,1700.8 3651.4,1578.7 3686.6,1457.6 3723.6,1337.6 3762.3,1218.8 3802.6,1101.3 3844.5,985.0 3887.7,870.2 3932.1,756.8 3977.7,644.9  " style="stroke-opacity: 1.000000; stroke-width: 2.0; stroke: rgb(0,0,0); fill: none"  />
<path d="M 3655.8,5464.2 L 3625.5,5347.3 3596.5,5229.0 3569.0,5109.4 3543.0,4988.6 3518.7,4866.7 3496.1,4743.8 3475.4,4620.0 3456.6,4495.3 3439.8,4369.8 3425.1,4243.7 3412.6,4116.9 3402.3,3989.6 3394.2,3861.9 3388.5,3733.8 3385.1,3605.5 3384.0,3477.0 3385.4,3348.3 3389.1,3219.6 3395.3,3091.0 3403.9,2962.4 3414.9,2834.1 3428.2,2706.0 3444.0,2578.4 3462.2,2451.1 3482.6,2324.3 3505.4,2198.2 3530.3,2072.7 3557.5,1947.9 3586.8,1823.9 3618.1,1700.8 3651.4,1578.7 3686.6,1457.6 3723.6,1337.6 3762.3,1218.8 3802.6,1101.3 3844.5,985.0 3887.7,870.2 3932.1,756.8 3977.7,644.9  " style="stroke-opacity: 1.000000; stroke-width: 2.0; stroke: rgb(0,0,0); fill: none"  />
<path d="M 3655.8,5464.2 L 3625.5,5347.3 3596.5,5229.0 3569.0,5109.4 3543.0,4988.6 3518.7,4866.7 3496.1,4743.8 3475.4,4620.0 3456.6,4495.3 3439.8,4369.8 3425.1,4243.7 3412.6,4116.9 3402.3,3989.6 3394.2,3861.9 3388.5,3733.8 3385.1,3605.5 3384.0,3477.0 3385.4,3348.3 3389.1,3219.6 3395.3,3091.0 3403.9,2962.4 3414.9,2834.1 3428.2,2706.0 3444.0,2578.4 3462.2,2451.1 3482.6,2324.3 3505.4,2198.2 3530.3,2072.7 3557.5,1947.9 3586.8,1823.9 3618.1,1700.8 3651.4,1578.7 3686.6,1457.6 3723.6,1337.6 3762.3,1218.8 3802.6,1101.3 3844.5,985.0 3887.7,870.2 3932.1,756.8 3977.7,644.9  " style="stroke-opacity: 1.000000; stroke-width: 2.0; stroke: rgb(0,0,0); fill: none"  />
<path d="M 3655.8,5464.2 L 3625.5,5347.3 3596.5,5229.0 3569.0,5109.4 3543.0,4988.6 3518.6,4866.7 3496.1,4743.8 3475.3,4620.0 3456.6,4495.3 3439.8,4369.8 3425.1,4243.7 3412.6,4116.9 3402.3,3989.6 3394.2,3861.9 3388.5,3733.8 3385.0,3605.5 3384.0,3477.0 3385.3,3348.3 3389.1,3219.6 3395.3,3091.0 3403.9,2962.4 3414.9,2834.1 3428.3,2706.1 3444.0,2578.4 3462.2,2451.1 3482.6,2324.3 3505.4,2198.2 3530.3,2072.7 3557.5,1947.9 3586.8,1823.9 3618.1,1700.9 3651.4,1578.7 3686.6,1457.6 3723.6,1337.7 3762.3,1218.8 3802.7,1101.3 3844.5,985.0 3887.7,870.2 3932.2,756.8 3977.8,644.9  " style="stroke-opacity: 1.000000; stroke-width: 2.0; stroke: rgb(0,0,0); fill: none"  />
<path d="M 3655.8,5464.2 L 3625.5,5347.3 3596.5,5229.0 3569.0,5109.4 3543.0,4988.6 3518.6,4866.7 3496.1,4743.8 3475.3,4620.0 3456.6,4495.3 3439.8,4369.8 3425.1,4243.7 3412.6,4116.9 3402.3,3989.6 3394.2,3861.9 3388.5,3733.8 3385.0,3605.5 3384.0,3477.0 3385.3,3348.3 3389.1,3219.6 3395.3,3091.0 3403.9,2962.4 3414.9,2834.1 3428.3,2706.1 3444.0,2578.4 3462.2,2451.1 3482.6,2324.3 3505.4,2198.2 3530.3,2072.7 3557.5,1947.9 3586.8,1823.9 3618.1,1700.9 3651.4,1578.7 3686.6,1457.6 3723.6,1337.7 3762.3,1218.8 3802.7,1101.3 3844.5,985.0 3887.7,870.2 3932.2,756.8 3977.8,644.9  " style="stroke-opacity: 1.000000; stroke-width: 2.0; stroke: rgb(0,0,0); fill: none"  />
<path d="M 3655.8,5464.2 L 3625.5,5347.3 3596.5,5229.0 3569.0,5109.4 3543.0,4988.6 3518.6,4866.7 3496.1,4743.8 3475.3,4620.0 3456.6,4495.3 3439.8,4369.8 3425.1,4243.7 3412.6,4116.9 3402.3,3989.6 3394.2,3861.9 3388.5,3733.8 3385.0,3605.5 3384.0,3477.0 3385.3,3348.3 3389.1,3219.6 3395.3,3091.0 3403.9,2962.4 3414.9,2834.1 3428.3,2706.1 3444.0,2578.4 3462.2,2451.1 3482.6,2324.3 3505.4,2198.2 3530.3,2072.7 3557.5,1947.9 3586.8,1823.9 3618.1,1700.9 3651.4,1578.7 3686.6,1457.6 3723.6,1337.7 3762.3,1218.8 3802.7,1101.3 3844.5,985.0 3887.7,870.2 3932.2,756.8 3977.8,644.9  " style="stroke-opacity: 1.000000; stroke-width: 2.0; stroke: rgb(0,0,0); fill: none"  />
<path d="M 3655.5,5464.3 L 3625.2,5347.4 3596.2,5229.1 3568.7,5109.5 3542.7,4988.7 3518.4,4866.8 3495.9,4743.9 3475.2,4620.1 3456.4,4495.4 3439.7,4369.9 3425.0,4243.7 3412.5,4117.0 3402.2,3989.7 3394.2,3862.0 3388.5,3733.9 3385.1,3605.6 3384.1,3477.1 3385.4,3348.4 3389.2,3219.7 3395.4,3091.1 3404.0,2962.5 3415.1,2834.2 3428.5,2706.2 3444.3,2578.5 3462.5,2451.2 3483.0,2324.5 3505.8,2198.4 3530.8,2072.9 3558.0,1948.1 3587.3,1824.1 3618.7,1701.1 3652.0,1579.0 3687.2,1457.9 3724.3,1337.9 3763.1,1219.1 3803.4,1101.6 3845.3,985.4 3888.6,870.5 3933.1,757.1 3978.7,645.3  " style="stroke-opacity: 1.000000; stroke-width: 2.0; stroke: rgb(0,0,0); fill: none"  />
<path d="M 3655.2,5464.4 L 3624.9,5347.5 3595.9,5229.1 3568.4,5109.6 3542.4,4988.8 3518.1,4866.9 3495.6,4744.0 3474.9,4620.1 3456.2,4495.4 3439.5,4370.0 3424.8,4243.8 3412.4,4117.1 3402.1,3989.8 3394.1,3862.1 3388.4,3734.0 3385.0,3605.7 3384.0,3477.1 3385.4,3348.5 3389.2,3219.8 3395.4,3091.1 3404.1,2962.6 3415.1,2834.3 3428.6,2706.3 3444.4,2578.6 3462.6,2451.3 3483.1,2324.6 3505.9,2198.4 3530.9,2072.9 3558.2,1948.2 3587.5,1824.2 3618.9,1701.2 3652.3,1579.1 3687.5,1458.0 3724.6,1338.1 3763.4,1219.3 3803.8,1101.7 3845.7,985.5 3888.9,870.7 3933.5,757.3 3979.1,645.5  " style="stroke-opacity: 1.000000; stroke-width: 2.0; stroke: rgb(0,0,0); fill: none"  />
<path d="M 3655.1,5464.4 L 3624.9,5347.5 3595.9,5229.2 3568.4,5109.6 3542.4,4988.8 3518.1,4866.9 3495.6,4744.0 3474.9,4620.1 3456.2,4495.4 3439.5,4370.0 3424.8,4243.8 3412.3,4117.1 3402.1,3989.8 3394.1,3862.1 3388.4,3734.0 3385.0,3605.7 3384.0,3477.1 3385.4,3348.5 3389.2,3219.8 3395.4,3091.1 3404.1,2962.6 3415.1,2834.3 3428.6,2706.3 3444.4,2578.6 3462.6,2451.3 3483.1,2324.6 3505.9,2198.4 3531.0,2072.9 3558.2,1948.2 3587.5,1824.2 3618.9,1701.2 3652.3,1579.1 3687.5,1458.0 3724.6,1338.1 3763.4,1219.3 3803.8,1101.7 3845.7,985.5 3888.9,870.7 3933.5,757.3 3979.1,645.5  " style="stroke-opacity: 1.000000; stroke-width: 2.0; stroke: rgb(0,0,0); fill: none"  />
<path d="M 3655.1,5464.4 L 3624.9,5347.5 3595.9,5229.2 3568.4,5109.6 3542.4,4988.8 3518.1,4866.9 3495.6,4744.0 3474.9,4620.1 3456.2,4495.4 3439.5,4370.0 3424.8,4243.8 3412.3,4117.1 3402.1,3989.8 3394.1,3862.1 3388.4,3734.0 3385.0,3605.7 3384.0,3477.1 3385.4,3348.5 3389.2,3219.8 3395.4,3091.1 3404.1,2962.6 3415.1,2834.3 3428.6,2706.3 3444.4,2578.6 3462.6,2451.3 3483.1,2324.6 3505.9,2198.4 3531.0,2072.9 3558.2,1948.2 3587.5,1824.3 3618.9,1701.2 3652.3,1579.1 3687.5,1458.0 3724.6,1338.1 3763.4,1219.3 3803.8,1101.7 3845.7,985.5 3888.9,870.7 3933.5,757.3 3979.1,645.5  " style="stroke-opacity: 1.000000; stroke-width: 2.0; stroke: rgb(0,0,0); fill: none"  />
<path d="M 3649.1,5466.0 L 3619.1,5348.9 3590.4,5230.4 3563.1,5110.7 3537.4,4989.8 3513.3,4867.8 3491.0,4744.7 3470.5,4620.8 3451.9,4496.0 3435.3,4370.4 3420.8,4244.2 3408.5,4117.3 3398.3,3989.9 3390.3,3862.1 3384.7,3734.0 3381.4,3605.6 3380.4,3476.9 3381.8,3348.2 3385.5,3219.4 3391.7,3090.7 3400.3,2962.1 3411.2,2833.6 3424.6,2705.5 3440.3,2577.7 3458.3,2450.4 3478.6,2323.5 3501.2,2197.2 3526.0,2071.6 3553.0,1946.7 3582.1,1822.6 3613.2,1699.4 3646.3,1577.2 3681.2,1455.9 3718.0,1335.8 3756.4,1216.8 3796.5,1099.0 3838.0,982.6 3880.9,867.5 3925.1,753.9 3970.4,641.9  " style="stroke-opacity: 1.000000; stroke-width: 2.0; stroke: rgb(0,0,0); fill: none"  />
<path d="M 3649.1,5466.0 L 3619.1,5348.9 3590.4,5230.4 3563.1,5110.7 3537.4,4989.8 3513.3,4867.8 3491.0,4744.7 3470.5,4620.8 3451.9,4496.0 3435.3,4370.4 3420.8,4244.2 3408.5,4117.3 3398.3,3989.9 3390.3,3862.1 3384.7,3734.0 3381.4,3605.6 3380.4,3476.9 3381.8,3348.2 3385.5,3219.4 3391.7,3090.7 3400.3,2962.1 3411.2,2833.6 3424.6,2705.5 3440.3,2577.7 3458.3,2450.4 3478.6,2323.5 3501.2,2197.2 3526.0,2071.6 3553.0,1946.7 3582.1,1822.6 3613.2,1699.4 3646.3,1577.2 3681.2,1455.9 3718.0,1335.8 3756.4,1216.8 3796.5,1099.0 3838.0,982.6 3880.9,867.6 3925.1,753.9 3970.4,641.9  " style="stroke-opacity: 1.000000; stroke-width: 2.0; stroke: rgb(0,0,0); fill: none"  />
<path d="M 3649.1,5466.0 L 3619.1,5348.9 3590.4,5230.4 3563.1,5110.7 3537.4,4989.8 3513.3,4867.8 3491.0,4744.7 3470.5,4620.8 3451.9,4496.0 3435.3,4370.4 3420.8,4244.2 3408.5,4117.3 3398.3,3989.9 3390.3,3862.1 3384.7,3734.0 3381.4,3605.6 3380.4,3476.9 3381.8,3348.2 3385.5,3219.4 3391.7,3090.7 3400.3,2962.1 3411.2,2833.7 3424.6,2705.5 3440.3,2577.7 3458.3,2450.4 3478.6,2323.5 3501.2,2197.2 3526.0,2071.6 3553.0,1946.7 3582.1,1822.6 3613.2,1699.4 3646.3,1577.2 3681.2,1455.9 3718.0,1335.8 3756.4,1216.8 3796.5,1099.0 3838.0,982.6 3880.9,867.6 3925.1,754.0 3970.4,641.9  " style="stroke-opacity: 1.000000; stroke-width: 2.0; stroke: rgb(0,0,0); fill: none"  />
<path d="M 3649.0,5466.0 L 3619.0,5348.9 3590.3,5230.4 3563.0,5110.7 3537.3,4989.8 3513.2,4867.8 3490.9,4744.8 3470.4,4620.8 3451.8,4496.0 3435.3,4370.4 3420.8,4244.2 3408.4,4117.3 3398.2,3990.0 3390.3,3862.1 3384.7,3734.0 3381.3,3605.6 3380.3,3476.9 3381.7,3348.2 3385.5,3219.4 3391.7,3090.7 3400.2,2962.1 3411.2,2833.7 3424.5,2705.5 3440.2,2577.7 3458.3,2450.4 3478.6,2323.5 3501.2,2197.2 3526.0,2071.6 3553.0,1946.7 3582.1,1822.6 3613.2,1699.4 3646.3,1577.2 3681.2,1455.9 3718.0,1335.8 3756.4,1216.8 3796.5,1099.0 3838.0,982.6 3880.9,867.6 3925.1,753.9 3970.4,641.9  " style="stroke-opacity: 1.000000; stroke-width: 2.0; stroke: rgb(0,0,0); fill: none"  />
<path d="M 3649.0,5466.0 L 3619.0,5348.9 3590.3,5230.4 3563.0,5110.7 3537.3,4989.8 3513.2,4867.8 3490.9,4744.8 3470.4,4620.8 3451.8,4496.0 3435.3,4370.4 3420.8,4244.2 3408.4,4117.3 3398.2,3990.0 3390.3,3862.2 3384.6,3734.0 3381.3,3605.6 3380.3,3476.9 3381.7,3348.2 3385.5,3219.4 3391.7,3090.7 3400.2,2962.1 3411.2,2833.7 3424.5,2705.5 3440.2,2577.7 3458.3,2450.4 3478.6,2323.5 3501.2,2197.2 3526.0,2071.6 3553.0,1946.7 3582.1,1822.6 3613.2,1699.4 3646.3,1577.2 3681.2,1455.9 3718.0,1335.8 3756.4,1216.8 3796.5,1099.0 3838.0,982.6 3880.9,867.6 3925.1,753.9 3970.4,641.9  " style="stroke-opacity: 1.000000; stroke-width: 2.0; stroke: rgb(0,0,0); fill: none"  />
<path d="M 3649.0,5466.0 L 3619.0,5348.9 3590.3,5230.5 3563.0,5110.7 3537.3,4989.8 3513.2,4867.8 3490.9,4744.8 3470.4,4620.8 3451.8,4496.0 3435.3,4370.4 3420.8,4244.2 3408.4,4117.3 3398.2,3990.0 3390.3,3862.2 3384.6,3734.0 3381.3,3605.6 3380.3,3476.9 3381.7,3348.2 3385.5,3219.4 3391.7,3090.7 3400.2,2962.1 3411.2,2833.7 3424.5,2705.5 3440.2,2577.7 3458.3,2450.4 3478.6,2323.5 3501.2,2197.2 3526.0,2071.6 3553.0,1946.7 3582.1,1822.6 3613.2,1699.4 3646.3,1577.2 3681.2,1455.9 3718.0,1335.8 3756.4,1216.8 3796.5,1099.1 3838.0,982.6 3880.9,867.6 3925.1,754.0 3970.4,641.9  " style="stroke-opacity: 1.000000; stroke-width: 2.0; stroke: rgb(0,0,0); fill: none"  />
<path d="M 3644.0,5467.3 L 3614.2,5350.2 3585.7,5231.6 3558.7,5111.8 3533.2,4990.8 3509.3,4868.7 3487.2,4745.6 3467.0,4621.6 3448.6,4496.8 3432.3,4371.1 3418.0,4244.9 3405.8,4118.0 3395.9,3990.6 3388.1,3862.7 3382.7,3734.5 3379.5,3606.1 3378.7,3477.4 3380.3,3348.7 3384.2,3219.9 3390.6,3091.1 3399.3,2962.5 3410.4,2834.1 3423.9,2705.9 3439.8,2578.1 3457.9,2450.8 3478.4,2323.9 3501.1,2197.6 3526.1,2072.0 3553.2,1947.1 3582.4,1823.1 3613.6,1699.8 3646.8,1577.6 3681.8,1456.4 3718.7,1336.2 3757.2,1217.2 3797.3,1099.5 3838.9,983.1 3881.9,868.0 3926.2,754.4 3971.5,642.3  " style="stroke-opacity: 1.000000; stroke-width: 2.0; stroke: rgb(0,0,0); fill: none"  />
<path d="M 3644.0,5467.4 L 3614.2,5350.2 3585.7,5231.6 3558.7,5111.8 3533.2,4990.8 3509.3,4868.7 3487.2,4745.7 3466.9,4621.6 3448.6,4496.8 3432.2,4371.2 3418.0,4244.9 3405.8,4118.0 3395.8,3990.6 3388.1,3862.7 3382.7,3734.5 3379.5,3606.1 3378.7,3477.4 3380.3,3348.7 3384.3,3219.9 3390.6,3091.1 3399.3,2962.5 3410.5,2834.1 3423.9,2705.9 3439.8,2578.1 3458.0,2450.8 3478.4,2323.9 3501.2,2197.7 3526.1,2072.0 3553.2,1947.2 3582.4,1823.1 3613.6,1699.9 3646.8,1577.6 3681.9,1456.4 3718.7,1336.2 3757.3,1217.3 3797.4,1099.5 3839.0,983.1 3882.0,868.0 3926.2,754.4 3971.6,642.3  " style="stroke-opacity: 1.000000; stroke-width: 2.0; stroke: rgb(0,0,0); fill: none"  />
<path d="M 3643.9,5467.4 L 3614.2,5350.2 3585.7,5231.6 3558.6,5111.8 3533.2,4990.8 3509.3,4868.7 3487.2,4745.7 3466.9,4621.6 3448.6,4496.8 3432.2,4371.2 3418.0,4244.9 3405.8,4118.0 3395.8,3990.6 3388.1,3862.7 3382.7,3734.5 3379.5,3606.1 3378.7,3477.4 3380.3,3348.7 3384.3,3219.9 3390.6,3091.1 3399.3,2962.5 3410.5,2834.1 3424.0,2705.9 3439.8,2578.1 3458.0,2450.8 3478.5,2323.9 3501.2,2197.7 3526.1,2072.0 3553.2,1947.2 3582.4,1823.1 3613.6,1699.9 3646.8,1577.6 3681.9,1456.4 3718.7,1336.2 3757.3,1217.3 3797.4,1099.5 3839.0,983.1 3882.0,868.0 3926.2,754.4 3971.6,642.4  " style="stroke-opacity: 1.000000; stroke-width: 2.0; stroke: rgb(0,0,0); fill: none"  />
<path d="M 3643.9,5467.4 L 3614.1,5350.2 3585.7,5231.6 3558.6,5111.8 3533.1,4990.8 3509.3,4868.7 3487.2,4745.7 3466.9,4621.6 3448.6,4496.8 3432.2,4371.2 3418.0,4244.9 3405.8,4118.0 3395.8,3990.6 3388.1,3862.7 3382.7,3734.5 3379.5,3606.1 3378.7,3477.4 3380.3,3348.7 3384.3,3219.9 3390.6,3091.1 3399.3,2962.5 3410.5,2834.1 3424.0,2705.9 3439.8,2578.2 3458.0,2450.8 3478.5,2323.9 3501.2,2197.7 3526.1,2072.0 3553.2,1947.2 3582.4,1823.1 3613.7,1699.9 3646.8,1577.6 3681.9,1456.4 3718.7,1336.2 3757.3,1217.3 3797.4,1099.5 3839.0,983.1 3882.0,868.1 3926.3,754.4 3971.6,642.4  " style="stroke-opacity: 1.000000; stroke-width: 2.0; stroke: rgb(0,0,0); fill: none"  />
<path d="M 3559.8,5487.8 L 3534.4,5371.2 3510.7,5253.2 3488.6,5133.9 3468.4,5013.5 3450.1,4891.9 3433.9,4769.4 3419.8,4646.0 3408.0,4521.8 3398.6,4397.0 3391.6,4271.6 3387.0,4145.8 3385.1,4019.6 3385.7,3893.2 3389.0,3766.5 3395.0,3639.9 3403.6,3513.2 3415.1,3386.6 3429.3,3260.3 3446.2,3134.3 3465.9,3008.6 3488.3,2883.4 3513.4,2758.8 3541.2,2634.8 3571.7,2511.6 3604.7,2389.1 3640.3,2267.6 3678.4,2147.0 3718.8,2027.4 3761.6,1909.0 3806.7,1791.8 3853.8,1675.8 3903.0,1561.2 3954.1,1448.0 4007.0,1336.3 4061.6,1226.2 4117.7,1117.7 4175.2,1010.8 4233.9,905.8 4293.7,802.5  " style="stroke-opacity: 1.000000; stroke-width: 2.0; stroke: rgb(0,0,0); fill: none"  />
<path d="M 3559.6,5487.8 L 3534.3,5371.2 3510.6,5253.2 3488.5,5134.0 3468.3,5013.5 3450.0,4891.9 3433.8,4769.4 3419.7,4646.0 3407.9,4521.8 3398.5,4397.0 3391.5,4271.6 3387.0,4145.8 3385.0,4019.6 3385.6,3893.2 3388.9,3766.5 3394.9,3639.9 3403.6,3513.2 3415.0,3386.6 3429.2,3260.3 3446.2,3134.3 3465.9,3008.6 3488.3,2883.4 3513.4,2758.8 3541.2,2634.8 3571.7,2511.6 3604.7,2389.1 3640.3,2267.6 3678.4,2147.0 3718.8,2027.4 3761.6,1909.0 3806.6,1791.8 3853.8,1675.8 3903.0,1561.2 3954.1,1448.0 4007.0,1336.3 4061.6,1226.2 4117.7,1117.7 4175.2,1010.8 4233.9,905.8 4293.6,802.5  " style="stroke-opacity: 1.000000; stroke-width: 2.0; stroke: rgb(0,0,0); fill: none"  />
<path d="M 3559.6,5487.8 L 3534.3,5371.2 3510.6,5253.2 3488.5,5134.0 3468.3,5013.5 3450.0,4891.9 3433.8,4769.4 3419.7,4646.0 3407.9,4521.8 3398.5,4397.0 3391.5,4271.6 3387.0,4145.8 3385.0,4019.6 3385.6,3893.2 3388.9,3766.5 3394.9,3639.9 3403.6,3513.2 3415.0,3386.6 3429.2,3260.3 3446.2,3134.3 3465.9,3008.6 3488.3,2883.4 3513.4,2758.8 3541.2,2634.8 3571.7,2511.6 3604.7,2389.1 3640.3,2267.6 3678.4,2147.0 3718.8,2027.4 3761.6,1909.0 3806.6,1791.8 3853.8,1675.8 3903.0,1561.2 3954.1,1448.0 4007.0,1336.3 4061.6,1226.2 4117.7,1117.7 4175.2,1010.8 4233.9,905.8 4293.7,802.5  " style="stroke-opacity: 1.000000; stroke-width: 2.0; stroke: rgb(0,0,0); fill: none"  />
<path d="M 3559.6,5487.9 L 3534.2,5371.3 3510.5,5253.3 3488.4,5134.0 3468.2,5013.5 3449.9,4891.9 3433.7,4769.4 3419.7,4646.0 3407.9,4521.8 3398.4,4397.0 3391.4,4271.6 3386.9,4145.8 3384.9,4019.6 3385.6,3893.2 3388.9,3766.6 3394.9,3639.9 3403.6,3513.2 3415.0,3386.7 3429.2,3260.3 3446.1,3134.3 3465.8,3008.6 3488.3,2883.4 3513.4,2758.8 3541.2,2634.8 3571.6,2511.6 3604.7,2389.1 3640.3,2267.6 3678.3,2147.0 3718.8,2027.4 3761.6,1909.0 3806.6,1791.8 3853.8,1675.8 3903.0,1561.2 3954.1,1448.0 4007.0,1336.3 4061.6,1226.2 4117.7,1117.7 4175.2,1010.8 4233.9,905.8 4293.6,802.5  " style="stroke-opacity: 1.000000; stroke-width: 2.0; stroke: rgb(0,0,0); fill: none"  />
<path d="M 3559.5,5487.9 L 3534.2,5371.3 3510.5,5253.3 3488.4,5134.0 3468.2,5013.5 3449.9,4891.9 3433.7,4769.4 3419.7,4646.0 3407.9,4521.8 3398.4,4397.0 3391.4,4271.6 3386.9,4145.8 3384.9,4019.6 3385.6,3893.2 3388.9,3766.6 3394.9,3639.9 3403.6,3513.2 3415.0,3386.7 3429.2,3260.3 3446.1,3134.3 3465.8,3008.6 3488.3,2883.4 3513.4,2758.8 3541.2,2634.8 3571.6,2511.6 3604.7,2389.1 3640.3,2267.6 3678.4,2147.0 3718.8,2027.4 3761.6,1909.0 3806.6,1791.8 3853.8,1675.8 3903.0,1561.2 3954.1,1448.0 4007.0,1336.3 4061.6,1226.2 4117.7,1117.7 4175.2,1010.8 4233.9,905.8 4293.7,802.5  " style="stroke-opacity: 1.000000; stroke-width: 2.0; stroke: rgb(0,0,0); fill: none"  />
<path d="M 3559.5,5487.9 L 3534.2,5371.3 3510.5,5253.3 3488.4,5134.0 3468.2,5013.5 3449.9,4891.9 3433.7,4769.4 3419.7,4646.0 3407.9,4521.8 3398.4,4397.0 3391.4,4271.7 3386.9,4145.8 3384.9,4019.6 3385.6,3893.2 3388.9,3766.6 3394.9,3639.9 3403.6,3513.2 3415.0,3386.7 3429.2,3260.3 3446.1,3134.3 3465.8,3008.6 3488.3,2883.4 3513.4,2758.8 3541.2,2634.8 3571.6,2511.6 3604.7,2389.1 3640.3,2267.6 3678.4,2147.0 3718.8,2027.4 3761.6,1909.0 3806.6,1791.8 3853.8,1675.8 3903.0,1561.2 3954.1,1448.0 4007.0,1336.3 4061.6,1226.2 4117.7,1117.7 4175.2,1010.8 4233.9,905.8 4293.7,802.5  " style="stroke-opacity: 1.000000; stroke-width: 2.0; stroke: rgb(0,0,0); fill: none"  />
<path d="M 3559.5,5487.9 L 3534.2,5371.3 3510.4,5253.3 3488.4,5134.0 3468.1,5013.5 3449.9,4891.9 3433.7,4769.4 3419.6,4646.0 3407.8,4521.9 3398.4,4397.0 3391.4,4271.7 3386.9,4145.8 3384.9,4019.6 3385.6,3893.2 3388.9,3766.6 3394.8,3639.9 3403.5,3513.2 3415.0,3386.7 3429.2,3260.3 3446.1,3134.3 3465.8,3008.6 3488.2,2883.4 3513.4,2758.8 3541.2,2634.8 3571.6,2511.6 3604.7,2389.1 3640.3,2267.6 3678.3,2147.0 3718.8,2027.4 3761.6,1909.0 3806.6,1791.8 3853.8,1675.8 3903.0,1561.2 3954.1,1448.0 4007.0,1336.3 4061.6,1226.2 4117.7,1117.7 4175.2,1010.8 4233.9,905.8 4293.6,802.5  " style="stroke-opacity: 1.000000; stroke-width: 2.0; stroke: rgb(0,0,0); fill: none"  />
<path d="M 3559.5,5487.9 L 3534.2,5371.3 3510.4,5253.3 3488.4,5134.0 3468.1,5013.5 3449.9,4891.9 3433.7,4769.4 3419.6,4646.0 3407.8,4521.9 3398.4,4397.0 3391.4,4271.7 3386.9,4145.8 3384.9,4019.6 3385.6,3893.2 3388.9,3766.6 3394.8,3639.9 3403.5,3513.2 3415.0,3386.7 3429.2,3260.3 3446.1,3134.3 3465.8,3008.6 3488.2,2883.4 3513.4,2758.8 3541.2,2634.8 3571.6,2511.6 3604.7,2389.1 3640.3,2267.6 3678.3,2147.0 3718.8,2027.4 3761.6,1909.0 3806.6,1791.8 3853.8,1675.8 3903.0,1561.2 3954.1,1448.0 4007.0,1336.3 4061.6,1226.2 4117.7,1117.7 4175.2,1010.8 4233.9,905.8 4293.7,802.5  " style="stroke-opacity: 1.000000; stroke-width: 2.0; stroke: rgb(0,0,0); fill: none"  />
<path d="M 3559.3,5487.9 L 3534.0,5371.3 3510.2,5253.3 3488.2,5134.0 3468.0,5013.5 3449.7,4892.0 3433.5,4769.4 3419.5,4646.0 3407.7,4521.9 3398.3,4397.1 3391.3,4271.7 3386.8,4145.8 3384.8,4019.6 3385.5,3893.2 3388.8,3766.6 3394.8,3639.9 3403.5,3513.2 3414.9,3386.7 3429.1,3260.3 3446.1,3134.3 3465.8,3008.6 3488.2,2883.5 3513.3,2758.8 3541.2,2634.8 3571.6,2511.6 3604.7,2389.1 3640.3,2267.6 3678.3,2147.0 3718.8,2027.4 3761.6,1909.0 3806.6,1791.8 3853.8,1675.9 3903.0,1561.3 3954.1,1448.1 4007.0,1336.4 4061.6,1226.2 4117.7,1117.7 4175.2,1010.9 4233.9,905.8 4293.7,802.5  " style="stroke-opacity: 1.000000; stroke-width: 2.0; stroke: rgb(0,0,0); fill: none"  />
<path d="M 3557.7,5488.3 L 3532.5,5371.6 3508.8,5253.6 3486.9,5134.3 3466.7,5013.8 3448.5,4892.2 3432.4,4769.7 3418.4,4646.3 3406.7,4522.1 3397.4,4397.2 3390.4,4271.9 3386.0,4146.0 3384.1,4019.8 3384.8,3893.3 3388.2,3766.7 3394.2,3640.0 3403.0,3513.4 3414.5,3386.8 3428.7,3260.5 3445.7,3134.4 3465.5,3008.8 3488.0,2883.6 3513.1,2759.0 3541.0,2635.0 3571.5,2511.7 3604.6,2389.3 3640.2,2267.7 3678.3,2147.1 3718.8,2027.6 3761.7,1909.2 3806.7,1792.0 3853.9,1676.0 3903.2,1561.4 3954.3,1448.2 4007.2,1336.5 4061.8,1226.4 4118.0,1117.9 4175.5,1011.0 4234.2,906.0 4294.0,802.7  " style="stroke-opacity: 1.000000; stroke-width: 2.0; stroke: rgb(0,0,0); fill: none"  />
<path d="M 3557.6,5488.3 L 3532.4,5371.7 3508.7,5253.6 3486.7,5134.3 3466.6,5013.8 3448.4,4892.2 3432.3,4769.7 3418.3,4646.3 3406.6,4522.1 3397.3,4397.3 3390.3,4271.9 3385.9,4146.0 3384.0,4019.8 3384.7,3893.4 3388.1,3766.7 3394.2,3640.0 3402.9,3513.4 3414.4,3386.8 3428.7,3260.5 3445.7,3134.4 3465.5,3008.8 3487.9,2883.6 3513.1,2759.0 3541.0,2635.0 3571.5,2511.7 3604.6,2389.3 3640.2,2267.7 3678.3,2147.1 3718.9,2027.6 3761.7,1909.2 3806.8,1792.0 3854.0,1676.0 3903.2,1561.4 3954.3,1448.2 4007.3,1336.5 4061.9,1226.4 4118.0,1117.9 4175.5,1011.1 4234.2,906.0 4294.0,802.7  " style="stroke-opacity: 1.000000; stroke-width: 2.0; stroke: rgb(0,0,0); fill: none"  />
<path d="M 3557.6,5488.3 L 3532.4,5371.7 3508.7,5253.6 3486.7,5134.3 3466.6,5013.8 3448.4,4892.2 3432.3,4769.7 3418.3,4646.3 3406.6,4522.1 3397.3,4397.3 3390.3,4271.9 3385.9,4146.0 3384.0,4019.8 3384.7,3893.4 3388.1,3766.7 3394.2,3640.0 3402.9,3513.4 3414.4,3386.8 3428.7,3260.5 3445.7,3134.4 3465.5,3008.8 3487.9,2883.6 3513.1,2759.0 3541.0,2635.0 3571.5,2511.7 3604.6,2389.3 3640.2,2267.7 3678.3,2147.1 3718.9,2027.6 3761.7,1909.2 3806.8,1792.0 3854.0,1676.0 3903.2,1561.4 3954.3,1448.2 4007.3,1336.6 4061.9,1226.4 4118.0,1117.9 4175.5,1011.1 4234.2,906.0 4294.0,802.7  " style="stroke-opacity: 1.000000; stroke-width: 2.0; stroke: rgb(0,0,0); fill: none"  />
<path d="M 3557.6,5488.3 L 3532.4,5371.7 3508.7,5253.6 3486.7,5134.3 3466.6,5013.8 3448.4,4892.2 3432.3,4769.7 3418.3,4646.3 3406.6,4522.1 3397.3,4397.3 3390.3,4271.9 3385.9,4146.0 3384.0,4019.8 3384.7,3893.4 3388.1,3766.7 3394.2,3640.0 3402.9,3513.4 3414.4,3386.8 3428.7,3260.5 3445.7,3134.4 3465.5,3008.8 3487.9,2883.6 3513.1,2759.0 3541.0,2635.0 3571.5,2511.7 3604.6,2389.3 3640.2,2267.7 3678.3,2147.1 3718.9,2027.6 3761.7,1909.2 3806.8,1792.0 3854.0,1676.0 3903.2,1561.4 3954.3,1448.2 4007.3,1336.6 4061.9,1226.4 4118.0,1117.9 4175.5,1011.1 4234.2,906.0 4294.0,802.7  " style="stroke-opacity: 1.000000; stroke-width: 2.0; stroke: rgb(0,0,0); fill: none"  />
<path d="M 3557.6,5488.3 L 3532.3,5371.7 3508.7,5253.7 3486.7,5134.3 3466.6,5013.8 3448.4,4892.2 3432.3,4769.7 3418.3,4646.3 3406.6,4522.1 3397.2,4397.3 3390.3,4271.9 3385.9,4146.0 3384.0,4019.8 3384.7,3893.4 3388.1,3766.7 3394.1,3640.0 3402.9,3513.4 3414.4,3386.8 3428.7,3260.5 3445.7,3134.4 3465.5,3008.8 3487.9,2883.6 3513.1,2759.0 3541.0,2635.0 3571.5,2511.7 3604.6,2389.3 3640.2,2267.7 3678.3,2147.2 3718.9,2027.6 3761.7,1909.2 3806.8,1792.0 3854.0,1676.0 3903.2,1561.4 3954.3,1448.3 4007.3,1336.6 4061.9,1226.4 4118.0,1117.9 4175.5,1011.1 4234.3,906.0 4294.0,802.7  " style="stroke-opacity: 1.000000; stroke-width: 2.0; stroke: rgb(0,0,0); fill: none"  />
<path d="M 3557.5,5488.3 L 3532.3,5371.7 3508.6,5253.7 3486.7,5134.3 3466.5,5013.8 3448.4,4892.3 3432.2,4769.7 3418.3,4646.3 3406.6,4522.1 3397.2,4397.3 3390.3,4271.9 3385.9,4146.0 3384.0,4019.8 3384.7,3893.4 3388.1,3766.7 3394.1,3640.1 3402.9,3513.4 3414.4,3386.8 3428.7,3260.5 3445.7,3134.4 3465.4,3008.8 3487.9,2883.6 3513.1,2759.0 3541.0,2635.0 3571.5,2511.7 3604.6,2389.3 3640.2,2267.7 3678.4,2147.2 3718.9,2027.6 3761.7,1909.2 3806.8,1792.0 3854.0,1676.0 3903.2,1561.4 3954.3,1448.3 4007.3,1336.6 4061.9,1226.4 4118.0,1117.9 4175.5,1011.1 4234.3,906.0 4294.1,802.7  " style="stroke-opacity: 1.000000; stroke-width: 2.0; stroke: rgb(0,0,0); fill: none"  />
<path d="M 3557.5,5488.3 L 3532.3,5371.7 3508.6,5253.7 3486.7,5134.3 3466.5,5013.8 3448.3,4892.3 3432.2,4769.7 3418.3,4646.3 3406.6,4522.1 3397.2,4397.3 3390.3,4271.9 3385.9,4146.0 3384.0,4019.8 3384.7,3893.4 3388.1,3766.7 3394.1,3640.1 3402.9,3513.4 3414.4,3386.8 3428.7,3260.5 3445.7,3134.4 3465.4,3008.8 3487.9,2883.6 3513.1,2759.0 3541.0,2635.0 3571.5,2511.7 3604.6,2389.3 3640.2,2267.7 3678.4,2147.2 3718.9,2027.6 3761.7,1909.2 3806.8,1792.0 3854.0,1676.0 3903.2,1561.4 3954.4,1448.3 4007.3,1336.6 4061.9,1226.4 4118.0,1117.9 4175.5,1011.1 4234.3,906.0 4294.1,802.8  " style="stroke-opacity: 1.000000; stroke-width: 2.0; stroke: rgb(0,0,0); fill: none"  />
<path d="M 3556.6,5488.5 L 3531.4,5371.9 3507.8,5253.8 3485.9,5134.5 3465.8,5014.0 3447.6,4892.4 3431.5,4769.8 3417.6,4646.4 3406.0,4522.2 3396.7,4397.4 3389.8,4272.0 3385.4,4146.1 3383.5,4019.9 3384.3,3893.5 3387.7,3766.8 3393.8,3640.1 3402.6,3513.4 3414.1,3386.9 3428.4,3260.5 3445.5,3134.5 3465.2,3008.8 3487.7,2883.7 3513.0,2759.0 3540.8,2635.0 3571.4,2511.8 3604.5,2389.3 3640.1,2267.8 3678.3,2147.2 3718.8,2027.7 3761.7,1909.2 3806.7,1792.0 3853.9,1676.1 3903.2,1561.5 3954.3,1448.3 4007.3,1336.6 4061.9,1226.5 4118.0,1117.9 4175.6,1011.1 4234.3,906.0 4294.1,802.8  " style="stroke-opacity: 1.000000; stroke-width: 2.0; stroke: rgb(0,0,0); fill: none"  />
<path d="M 3556.6,5488.5 L 3531.4,5371.9 3507.8,5253.8 3485.9,5134.5 3465.8,5014.0 3447.6,4892.4 3431.5,4769.8 3417.6,4646.4 3406.0,4522.2 3396.7,4397.4 3389.8,4272.0 3385.4,4146.1 3383.5,4019.9 3384.3,3893.5 3387.7,3766.8 3393.8,3640.1 3402.6,3513.4 3414.1,3386.9 3428.4,3260.5 3445.5,3134.5 3465.2,3008.8 3487.7,2883.7 3513.0,2759.0 3540.8,2635.0 3571.4,2511.8 3604.5,2389.3 3640.2,2267.8 3678.3,2147.2 3718.8,2027.7 3761.7,1909.2 3806.7,1792.0 3854.0,1676.1 3903.2,1561.5 3954.4,1448.3 4007.3,1336.6 4061.9,1226.5 4118.1,1117.9 4175.6,1011.1 4234.3,906.0 4294.1,802.8  " style="stroke-opacity: 1.000000; stroke-width: 2.0; stroke: rgb(0,0,0); fill: none"  />
<path d="M 3556.5,5488.5 L 3531.4,5371.9 3507.7,5253.8 3485.8,5134.5 3465.7,5014.0 3447.6,4892.4 3431.5,4769.8 3417.6,4646.4 3406.0,4522.2 3396.6,4397.4 3389.7,4272.0 3385.3,4146.1 3383.5,4019.9 3384.3,3893.5 3387.7,3766.8 3393.8,3640.1 3402.6,3513.5 3414.1,3386.9 3428.4,3260.6 3445.4,3134.5 3465.2,3008.8 3487.7,2883.7 3513.0,2759.0 3540.8,2635.1 3571.4,2511.8 3604.5,2389.4 3640.2,2267.8 3678.3,2147.2 3718.8,2027.7 3761.7,1909.3 3806.8,1792.0 3854.0,1676.1 3903.2,1561.5 3954.4,1448.3 4007.3,1336.6 4061.9,1226.5 4118.1,1118.0 4175.6,1011.1 4234.3,906.1 4294.1,802.8  " style="stroke-opacity: 1.000000; stroke-width: 2.0; stroke: rgb(0,0,0); fill: none"  />
<path d="M 3556.3,5488.6 L 3531.1,5371.9 3507.5,5253.9 3485.6,5134.6 3465.5,5014.0 3447.4,4892.4 3431.3,4769.9 3417.4,4646.5 3405.8,4522.3 3396.5,4397.4 3389.6,4272.0 3385.2,4146.2 3383.4,4020.0 3384.2,3893.5 3387.6,3766.8 3393.7,3640.1 3402.5,3513.5 3414.0,3386.9 3428.3,3260.6 3445.4,3134.5 3465.2,3008.9 3487.7,2883.7 3512.9,2759.0 3540.8,2635.1 3571.4,2511.8 3604.5,2389.4 3640.1,2267.8 3678.3,2147.2 3718.8,2027.7 3761.7,1909.3 3806.8,1792.1 3854.0,1676.1 3903.2,1561.5 3954.4,1448.3 4007.3,1336.6 4062.0,1226.5 4118.1,1118.0 4175.6,1011.1 4234.4,906.1 4294.2,802.8  " style="stroke-opacity: 1.000000; stroke-width: 2.0; stroke: rgb(0,0,0); fill: none"  />
<path d="M 3556.3,5488.6 L 3531.1,5371.9 3507.5,5253.9 3485.6,5134.6 3465.5,5014.0 3447.4,4892.4 3431.3,4769.9 3417.4,4646.5 3405.8,4522.3 3396.5,4397.4 3389.6,4272.0 3385.2,4146.2 3383.4,4020.0 3384.1,3893.5 3387.6,3766.8 3393.7,3640.1 3402.5,3513.5 3414.0,3386.9 3428.3,3260.6 3445.4,3134.5 3465.2,3008.9 3487.7,2883.7 3512.9,2759.1 3540.8,2635.1 3571.4,2511.8 3604.5,2389.4 3640.1,2267.8 3678.3,2147.2 3718.8,2027.7 3761.7,1909.3 3806.8,1792.1 3854.0,1676.1 3903.2,1561.5 3954.4,1448.3 4007.3,1336.6 4062.0,1226.5 4118.1,1118.0 4175.6,1011.1 4234.4,906.1 4294.2,802.8  " style="stroke-opacity: 1.000000; stroke-width: 2.0; stroke: rgb(0,0,0); fill: none"  />
<path d="M 3556.3,5488.6 L 3531.1,5371.9 3507.5,5253.9 3485.6,5134.6 3465.5,5014.0 3447.4,4892.4 3431.3,4769.9 3417.4,4646.5 3405.8,4522.3 3396.5,4397.4 3389.6,4272.0 3385.2,4146.2 3383.4,4020.0 3384.1,3893.5 3387.6,3766.9 3393.7,3640.2 3402.5,3513.5 3414.0,3386.9 3428.3,3260.6 3445.4,3134.5 3465.2,3008.9 3487.7,2883.7 3512.9,2759.1 3540.8,2635.1 3571.4,2511.8 3604.5,2389.4 3640.1,2267.8 3678.3,2147.2 3718.8,2027.7 3761.7,1909.3 3806.8,1792.1 3854.0,1676.1 3903.2,1561.5 3954.4,1448.3 4007.3,1336.6 4062.0,1226.5 4118.1,1118.0 4175.6,1011.1 4234.4,906.1 4294.2,802.8  " style="stroke-opacity: 1.000000; stroke-width: 2.0; stroke: rgb(0,0,0); fill: none"  />
<path d="M 3556.3,5488.6 L 3531.1,5371.9 3507.5,5253.9 3485.6,5134.6 3465.5,5014.0 3447.4,4892.4 3431.3,4769.9 3417.4,4646.5 3405.8,4522.3 3396.5,4397.4 3389.6,4272.0 3385.2,4146.2 3383.4,4020.0 3384.1,3893.5 3387.6,3766.9 3393.7,3640.2 3402.5,3513.5 3414.0,3386.9 3428.3,3260.6 3445.4,3134.5 3465.2,3008.9 3487.7,2883.7 3512.9,2759.1 3540.8,2635.1 3571.4,2511.8 3604.5,2389.4 3640.1,2267.8 3678.3,2147.2 3718.8,2027.7 3761.7,1909.3 3806.8,1792.1 3854.0,1676.1 3903.2,1561.5 3954.4,1448.3 4007.3,1336.6 4062.0,1226.5 4118.1,1118.0 4175.6,1011.2 4234.4,906.1 4294.2,802.8  " style="stroke-opacity: 1.000000; stroke-width: 2.0; stroke: rgb(0,0,0); fill: none"  />
<path d="M 3556.3,5488.6 L 3531.1,5371.9 3507.5,5253.9 3485.6,5134.6 3465.5,5014.0 3447.4,4892.5 3431.3,4769.9 3417.4,4646.5 3405.8,4522.3 3396.5,4397.4 3389.6,4272.0 3385.2,4146.2 3383.4,4020.0 3384.1,3893.5 3387.6,3766.9 3393.7,3640.2 3402.5,3513.5 3414.0,3386.9 3428.3,3260.6 3445.4,3134.5 3465.2,3008.9 3487.7,2883.7 3512.9,2759.1 3540.8,2635.1 3571.4,2511.8 3604.5,2389.4 3640.2,2267.8 3678.3,2147.2 3718.8,2027.7 3761.7,1909.3 3806.8,1792.1 3854.0,1676.1 3903.2,1561.5 3954.4,1448.3 4007.4,1336.6 4062.0,1226.5 4118.1,1118.0 4175.6,1011.2 4234.4,906.1 4294.2,802.8  " style="stroke-opacity: 1.000000; stroke-width: 2.0; stroke: rgb(0,0,0); fill: none"  />
<path d="M 3556.3,5488.6 L 3531.1,5372.0 3507.5,5253.9 3485.6,5134.6 3465.5,5014.0 3447.4,4892.5 3431.3,4769.9 3417.4,4646.5 3405.8,4522.3 3396.5,4397.4 3389.6,4272.0 3385.2,4146.2 3383.4,4020.0 3384.1,3893.5 3387.6,3766.9 3393.7,3640.2 3402.5,3513.5 3414.0,3386.9 3428.3,3260.6 3445.4,3134.5 3465.2,3008.9 3487.7,2883.7 3512.9,2759.1 3540.8,2635.1 3571.4,2511.8 3604.5,2389.4 3640.2,2267.8 3678.3,2147.2 3718.8,2027.7 3761.7,1909.3 3806.8,1792.1 3854.0,1676.1 3903.2,1561.5 3954.4,1448.3 4007.4,1336.6 4062.0,1226.5 4118.1,1118.0 4175.6,1011.2 4234.4,906.1 4294.2,802.8  " style="stroke-opacity: 1.000000; stroke-width: 2.0; stroke: rgb(0,0,0); fill: none"  />
<path d="M 3556.2,5488.6 L 3531.1,5372.0 3507.5,5253.9 3485.6,5134.6 3465.5,5014.1 3447.4,4892.5 3431.3,4769.9 3417.4,4646.5 3405.8,4522.3 3396.5,4397.4 3389.6,4272.0 3385.2,4146.2 3383.4,4020.0 3384.1,3893.5 3387.5,3766.9 3393.7,3640.2 3402.5,3513.5 3414.0,3386.9 3428.3,3260.6 3445.4,3134.5 3465.2,3008.9 3487.7,2883.7 3512.9,2759.1 3540.8,2635.1 3571.4,2511.8 3604.5,2389.4 3640.2,2267.8 3678.3,2147.2 3718.8,2027.7 3761.7,1909.3 3806.8,1792.1 3854.0,1676.1 3903.2,1561.5 3954.4,1448.3 4007.4,1336.7 4062.0,1226.5 4118.1,1118.0 4175.7,1011.2 4234.4,906.1 4294.2,802.8  " style="stroke-opacity: 1.000000; stroke-width: 2.0; stroke: rgb(0,0,0); fill: none"  />
<path d="M 3556.2,5488.6 L 3531.1,5372.0 3507.5,5253.9 3485.5,5134.6 3465.5,5014.1 3447.4,4892.5 3431.3,4769.9 3417.4,4646.5 3405.7,4522.3 3396.4,4397.4 3389.6,4272.0 3385.2,4146.2 3383.4,4020.0 3384.1,3893.5 3387.5,3766.9 3393.7,3640.2 3402.5,3513.5 3414.0,3386.9 3428.3,3260.6 3445.4,3134.5 3465.2,3008.9 3487.7,2883.7 3512.9,2759.1 3540.8,2635.1 3571.4,2511.8 3604.5,2389.4 3640.2,2267.8 3678.3,2147.2 3718.8,2027.7 3761.7,1909.3 3806.8,1792.1 3854.0,1676.1 3903.3,1561.5 3954.4,1448.4 4007.4,1336.7 4062.0,1226.5 4118.1,1118.0 4175.7,1011.2 4234.4,906.1 4294.2,802.8  " style="stroke-opacity: 1.000000; stroke-width: 2.0; stroke: rgb(0,0,0); fill: none"  />
<path d="M 3554.7,5488.9 L 3529.6,5372.3 3506.1,5254.3 3484.3,5135.0 3464.3,5014.5 3446.3,4892.9 3430.4,4770.4 3416.6,4647.0 3405.1,4522.9 3396.0,4398.0 3389.3,4272.7 3385.0,4146.9 3383.4,4020.7 3384.4,3894.3 3388.0,3767.7 3394.3,3641.1 3403.4,3514.5 3415.2,3388.0 3429.7,3261.7 3447.0,3135.8 3467.1,3010.2 3489.9,2885.2 3515.4,2760.6 3543.6,2636.8 3574.4,2513.7 3607.9,2391.4 3643.9,2270.0 3682.3,2149.5 3723.2,2030.2 3766.4,1911.9 3811.8,1794.9 3859.4,1679.2 3909.0,1564.8 3960.5,1451.8 4013.9,1340.3 4068.9,1230.4 4125.4,1122.1 4183.3,1015.6 4242.4,910.8 4302.5,807.8  " style="stroke-opacity: 1.000000; stroke-width: 2.0; stroke: rgb(0,0,0); fill: none"  />
<path d="M 3554.7,5488.9 L 3529.6,5372.3 3506.1,5254.3 3484.3,5135.0 3464.3,5014.5 3446.3,4892.9 3430.4,4770.4 3416.6,4647.0 3405.1,4522.9 3396.0,4398.0 3389.3,4272.7 3385.0,4146.9 3383.4,4020.7 3384.4,3894.3 3388.0,3767.7 3394.3,3641.1 3403.4,3514.5 3415.2,3388.0 3429.7,3261.7 3447.0,3135.8 3467.1,3010.2 3489.9,2885.2 3515.4,2760.6 3543.6,2636.8 3574.4,2513.7 3607.9,2391.4 3643.9,2270.0 3682.3,2149.5 3723.2,2030.2 3766.4,1911.9 3811.8,1794.9 3859.4,1679.2 3909.0,1564.8 3960.5,1451.8 4013.9,1340.3 4068.9,1230.4 4125.4,1122.2 4183.3,1015.6 4242.4,910.8 4302.5,807.8  " style="stroke-opacity: 1.000000; stroke-width: 2.0; stroke: rgb(0,0,0); fill: none"  />
<path d="M 3554.7,5488.9 L 3529.6,5372.3 3506.1,5254.3 3484.3,5135.0 3464.3,5014.5 3446.3,4892.9 3430.4,4770.4 3416.6,4647.0 3405.1,4522.9 3396.0,4398.1 3389.2,4272.7 3385.0,4146.9 3383.4,4020.7 3384.3,3894.3 3388.0,3767.7 3394.3,3641.1 3403.4,3514.5 3415.1,3388.0 3429.7,3261.8 3447.0,3135.8 3467.1,3010.2 3489.9,2885.2 3515.4,2760.7 3543.6,2636.8 3574.4,2513.7 3607.9,2391.4 3643.9,2270.0 3682.3,2149.5 3723.2,2030.2 3766.4,1911.9 3811.8,1794.9 3859.4,1679.2 3909.0,1564.8 3960.6,1451.8 4013.9,1340.3 4068.9,1230.4 4125.4,1122.2 4183.3,1015.6 4242.4,910.8 4302.6,807.8  " style="stroke-opacity: 1.000000; stroke-width: 2.0; stroke: rgb(0,0,0); fill: none"  />
<path d="M 3545.4,5491.0 L 3520.7,5374.1 3497.6,5255.8 3476.1,5136.3 3456.5,5015.6 3438.8,4893.8 3423.1,4771.0 3409.6,4647.4 3398.3,4523.1 3389.3,4398.1 3382.7,4272.5 3378.6,4146.5 3377.0,4020.1 3378.0,3893.5 3381.6,3766.8 3387.9,3639.9 3396.8,3513.1 3408.5,3386.4 3422.8,3259.9 3439.9,3133.7 3459.7,3007.8 3482.2,2882.5 3507.4,2757.7 3535.2,2633.5 3565.6,2510.1 3598.6,2387.4 3634.1,2265.7 3672.0,2144.8 3712.3,2025.1 3754.9,1906.4 3799.7,1788.9 3846.6,1672.7 3895.5,1557.8 3946.4,1444.4 3998.9,1332.4 4053.2,1221.9 4108.9,1113.0 4166.1,1005.8 4224.4,900.4 4283.8,796.7  " style="stroke-opacity: 1.000000; stroke-width: 2.0; stroke: rgb(0,0,0); fill: none"  />
<path d="M 3544.9,5491.1 L 3520.2,5374.2 3497.1,5255.9 3475.7,5136.4 3456.0,5015.7 3438.4,4893.9 3422.7,4771.1 3409.2,4647.5 3397.9,4523.2 3389.0,4398.1 3382.4,4272.6 3378.3,4146.6 3376.8,4020.2 3377.8,3893.6 3381.4,3766.8 3387.7,3640.0 3396.7,3513.1 3408.4,3386.4 3422.7,3259.9 3439.8,3133.7 3459.7,3007.9 3482.2,2882.6 3507.4,2757.8 3535.2,2633.6 3565.6,2510.2 3598.6,2387.5 3634.1,2265.8 3672.1,2144.9 3712.4,2025.2 3755.0,1906.5 3799.8,1789.1 3846.8,1672.9 3895.7,1558.0 3946.6,1444.5 3999.2,1332.5 4053.4,1222.0 4109.2,1113.2 4166.3,1006.0 4224.7,900.6 4284.1,796.9  " style="stroke-opacity: 1.000000; stroke-width: 2.0; stroke: rgb(0,0,0); fill: none"  />
<path d="M 3544.9,5491.1 L 3520.2,5374.2 3497.1,5255.9 3475.6,5136.4 3456.0,5015.7 3438.3,4893.9 3422.7,4771.1 3409.2,4647.5 3397.9,4523.2 3389.0,4398.2 3382.4,4272.6 3378.3,4146.6 3376.8,4020.2 3377.8,3893.6 3381.4,3766.8 3387.7,3640.0 3396.7,3513.1 3408.4,3386.4 3422.7,3259.9 3439.8,3133.7 3459.7,3007.9 3482.2,2882.6 3507.4,2757.8 3535.2,2633.6 3565.6,2510.2 3598.6,2387.5 3634.1,2265.8 3672.1,2145.0 3712.4,2025.2 3755.0,1906.5 3799.9,1789.1 3846.8,1672.9 3895.7,1558.0 3946.6,1444.5 3999.2,1332.5 4053.4,1222.0 4109.2,1113.2 4166.3,1006.0 4224.7,900.6 4284.1,796.9  " style="stroke-opacity: 1.000000; stroke-width: 2.0; stroke: rgb(0,0,0); fill: none"  />
<path d="M 3544.9,5491.1 L 3520.2,5374.2 3497.1,5255.9 3475.6,5136.4 3456.0,5015.7 3438.3,4893.9 3422.7,4771.1 3409.2,4647.5 3397.9,4523.2 3389.0,4398.2 3382.4,4272.6 3378.3,4146.6 3376.8,4020.2 3377.8,3893.6 3381.4,3766.8 3387.7,3640.0 3396.7,3513.2 3408.4,3386.4 3422.7,3259.9 3439.8,3133.7 3459.7,3007.9 3482.2,2882.6 3507.4,2757.8 3535.2,2633.6 3565.6,2510.2 3598.6,2387.5 3634.1,2265.8 3672.1,2145.0 3712.4,2025.2 3755.0,1906.5 3799.9,1789.1 3846.8,1672.9 3895.7,1558.0 3946.6,1444.5 3999.2,1332.5 4053.4,1222.0 4109.2,1113.2 4166.4,1006.0 4224.7,900.6 4284.1,796.9  " style="stroke-opacity: 1.000000; stroke-width: 2.0; stroke: rgb(0,0,0); fill: none"  />
<path d="M 3544.9,5491.1 L 3520.2,5374.2 3497.1,5255.9 3475.6,5136.4 3456.0,5015.7 3438.3,4893.9 3422.7,4771.1 3409.2,4647.5 3397.9,4523.2 3389.0,4398.2 3382.4,4272.6 3378.3,4146.6 3376.8,4020.2 3377.8,3893.6 3381.4,3766.8 3387.7,3640.0 3396.7,3513.2 3408.4,3386.4 3422.7,3259.9 3439.8,3133.7 3459.7,3007.9 3482.2,2882.6 3507.4,2757.8 3535.2,2633.6 3565.6,2510.2 3598.6,2387.5 3634.1,2265.8 3672.1,2145.0 3712.4,2025.2 3755.0,1906.5 3799.9,1789.1 3846.8,1672.9 3895.7,1558.0 3946.6,1444.5 3999.2,1332.5 4053.4,1222.0 4109.2,1113.2 4166.4,1006.0 4224.7,900.6 4284.1,796.9  " style="stroke-opacity: 1.000000; stroke-width: 2.0; stroke: rgb(0,0,0); fill: none"  />
<path d="M 3544.9,5491.1 L 3520.2,5374.2 3497.1,5255.9 3475.6,5136.4 3456.0,5015.7 3438.3,4893.9 3422.7,4771.1 3409.2,4647.5 3397.9,4523.2 3389.0,4398.2 3382.4,4272.6 3378.3,4146.6 3376.8,4020.2 3377.8,3893.6 3381.4,3766.8 3387.7,3640.0 3396.7,3513.2 3408.4,3386.4 3422.7,3259.9 3439.8,3133.7 3459.7,3007.9 3482.2,2882.6 3507.4,2757.8 3535.2,2633.6 3565.6,2510.2 3598.6,2387.5 3634.1,2265.8 3672.1,2145.0 3712.4,2025.2 3755.0,1906.5 3799.9,1789.1 3846.8,1672.9 3895.7,1558.0 3946.6,1444.5 3999.2,1332.5 4053.5,1222.1 4109.2,1113.2 4166.4,1006.0 4224.7,900.6 4284.1,796.9  " style="stroke-opacity: 1.000000; stroke-width: 2.0; stroke: rgb(0,0,0); fill: none"  />
<path d="M 3544.8,5491.1 L 3520.2,5374.2 3497.1,5256.0 3475.6,5136.4 3456.0,5015.7 3438.3,4893.9 3422.7,4771.1 3409.2,4647.5 3397.9,4523.2 3389.0,4398.2 3382.4,4272.6 3378.3,4146.6 3376.8,4020.2 3377.8,3893.6 3381.4,3766.8 3387.7,3640.0 3396.7,3513.2 3408.4,3386.4 3422.7,3259.9 3439.8,3133.7 3459.7,3007.9 3482.2,2882.6 3507.4,2757.8 3535.2,2633.6 3565.6,2510.2 3598.6,2387.5 3634.1,2265.8 3672.1,2145.0 3712.4,2025.2 3755.0,1906.5 3799.9,1789.1 3846.8,1672.9 3895.7,1558.0 3946.6,1444.5 3999.2,1332.5 4053.5,1222.1 4109.2,1113.2 4166.4,1006.0 4224.7,900.6 4284.1,796.9  " style="stroke-opacity: 1.000000; stroke-width: 2.0; stroke: rgb(0,0,0); fill: none"  />
<path d="M 3544.8,5491.1 L 3520.2,5374.2 3497.0,5256.0 3475.6,5136.4 3456.0,5015.7 3438.3,4893.9 3422.7,4771.1 3409.2,4647.5 3397.9,4523.2 3389.0,4398.2 3382.4,4272.6 3378.3,4146.6 3376.8,4020.2 3377.8,3893.6 3381.4,3766.8 3387.7,3640.0 3396.7,3513.2 3408.4,3386.4 3422.7,3259.9 3439.8,3133.7 3459.7,3007.9 3482.2,2882.6 3507.4,2757.8 3535.2,2633.6 3565.6,2510.2 3598.6,2387.5 3634.1,2265.8 3672.1,2145.0 3712.4,2025.2 3755.0,1906.5 3799.9,1789.1 3846.8,1672.9 3895.7,1558.0 3946.6,1444.5 3999.2,1332.5 4053.5,1222.1 4109.2,1113.2 4166.4,1006.0 4224.7,900.6 4284.1,796.9  " style="stroke-opacity: 1.000000; stroke-width: 2.0; stroke: rgb(0,0,0); fill: none"  />
<path d="M 3544.6,5491.2 L 3520.0,5374.3 3496.9,5256.0 3475.4,5136.4 3455.8,5015.7 3438.2,4893.9 3422.5,4771.2 3409.0,4647.6 3397.8,4523.2 3388.8,4398.2 3382.3,4272.6 3378.2,4146.6 3376.7,4020.3 3377.7,3893.6 3381.3,3766.9 3387.6,3640.0 3396.6,3513.2 3408.3,3386.5 3422.7,3260.0 3439.8,3133.8 3459.7,3008.0 3482.2,2882.6 3507.4,2757.8 3535.2,2633.6 3565.7,2510.2 3598.7,2387.6 3634.2,2265.8 3672.2,2145.0 3712.5,2025.2 3755.1,1906.6 3799.9,1789.1 3846.9,1672.9 3895.8,1558.1 3946.7,1444.6 3999.3,1332.6 4053.6,1222.1 4109.4,1113.3 4166.5,1006.1 4224.9,900.7 4284.3,797.0  " style="stroke-opacity: 1.000000; stroke-width: 2.0; stroke: rgb(0,0,0); fill: none"  />
<path d="M 3544.6,5491.2 L 3519.9,5374.3 3496.8,5256.0 3475.4,5136.4 3455.8,5015.7 3438.1,4893.9 3422.5,4771.2 3409.0,4647.6 3397.8,4523.2 3388.8,4398.2 3382.3,4272.6 3378.2,4146.6 3376.7,4020.3 3377.7,3893.6 3381.3,3766.9 3387.6,3640.0 3396.6,3513.2 3408.3,3386.5 3422.7,3260.0 3439.8,3133.8 3459.6,3008.0 3482.2,2882.6 3507.4,2757.8 3535.2,2633.7 3565.7,2510.2 3598.7,2387.6 3634.2,2265.8 3672.2,2145.0 3712.5,2025.3 3755.1,1906.6 3800.0,1789.1 3846.9,1672.9 3895.9,1558.1 3946.7,1444.6 3999.3,1332.6 4053.6,1222.1 4109.4,1113.3 4166.5,1006.1 4224.9,900.7 4284.3,797.0  " style="stroke-opacity: 1.000000; stroke-width: 2.0; stroke: rgb(0,0,0); fill: none"  />
<path d="M 3544.6,5491.2 L 3519.9,5374.3 3496.8,5256.0 3475.4,5136.4 3455.8,5015.7 3438.1,4893.9 3422.5,4771.2 3409.0,4647.6 3397.7,4523.2 3388.8,4398.2 3382.3,4272.6 3378.2,4146.6 3376.6,4020.3 3377.7,3893.6 3381.3,3766.9 3387.6,3640.0 3396.6,3513.2 3408.3,3386.5 3422.7,3260.0 3439.8,3133.8 3459.6,3008.0 3482.2,2882.6 3507.4,2757.8 3535.2,2633.7 3565.7,2510.2 3598.7,2387.6 3634.2,2265.8 3672.2,2145.0 3712.5,2025.3 3755.1,1906.6 3800.0,1789.1 3846.9,1672.9 3895.9,1558.1 3946.7,1444.6 3999.3,1332.6 4053.6,1222.1 4109.4,1113.3 4166.5,1006.1 4224.9,900.7 4284.3,797.0  " style="stroke-opacity: 1.000000; stroke-width: 2.0; stroke: rgb(0,0,0); fill: none"  />
</g>
<defs>
<pattern id="vline" width="10" height="10" patternTransform="rotate(0 0 0)" patternUnits="userSpaceOnUse"><line x1="0" y1="0" x2="0" y2="10" style="stroke:black;stroke-width:5" /></pattern>
<pattern id="hline" width="10" height="10" patternTransform="rotate(0 0 0)" patternUnits="userSpaceOnUse"><line x1="0" y1="0" x2="10" y2="0" style="stroke:black;stroke-width:5" /></pattern>
<pattern id="vline-sparse" width="10" height="10" patternTransform="rotate(0 0 0)" patternUnits="userSpaceOnUse"><line x1="0" y1="0" x2="0" y2="10" style="stroke:black;stroke-width:2" /></pattern>
<pattern id="checker" width="10" height="10" patternTransform="rotate(45 0 0)" patternUnits="userSpaceOnUse"><line x1="0" y1="0" x2="10" y2="0" style="stroke:black;stroke-width:2" /><line x1="0" y1="0" x2="0" y2="10" style="stroke:black;stroke-width:2" /></pattern>
<pattern id="hline-sparse" width="10" height="10" patternTransform="rotate(0 0 0)" patternUnits="userSpaceOnUse"><line x1="0" y1="0" x2="10" y2="0" style="stroke:black;stroke-width:2" /></pattern>
<pattern id="checker" width="10" height="10" patternTransform="rotate(45 0 0)" patternUnits="userSpaceOnUse"><line x1="0" y1="0" x2="10" y2="0" style="stroke:black;stroke-width:5" /><line x1="0" y1="0" x2="0" y2="10" style="stroke:black;stroke-width:4" /></pattern>
</defs>
</svg>
